<svg height="512" viewBox="0 0 512 512" width="512" xmlns="http://www.w3.org/2000/svg" xmlns:xlink="http://www.w3.org/1999/xlink"><linearGradient id="New_Gradient_Swatch_2" gradientUnits="userSpaceOnUse" x1="236" x2="236" y1="90.833" y2="408.24"><stop offset="0" stop-color="#fc5c7d"/><stop offset=".129" stop-color="#f35e85"/><stop offset=".343" stop-color="#d9659b"/><stop offset=".616" stop-color="#b070bf"/><stop offset=".934" stop-color="#777ff0"/><stop offset="1" stop-color="#6a82fb"/></linearGradient><linearGradient id="New_Gradient_Swatch_2-2" x1="256" x2="256" xlink:href="#New_Gradient_Swatch_2" y1="90.833" y2="408.24"/><linearGradient id="New_Gradient_Swatch_2-3" x1="128" x2="128" xlink:href="#New_Gradient_Swatch_2" y1="90.833" y2="408.24"/><linearGradient id="New_Gradient_Swatch_2-4" x1="192" x2="192" xlink:href="#New_Gradient_Swatch_2" y1="90.833" y2="408.24"/><linearGradient id="New_Gradient_Swatch_2-6" x1="320" x2="320" xlink:href="#New_Gradient_Swatch_2" y1="90.833" y2="408.24"/><linearGradient id="New_Gradient_Swatch_2-7" x1="384" x2="384" xlink:href="#New_Gradient_Swatch_2" y1="90.833" y2="408.24"/><linearGradient id="New_Gradient_Swatch_2-19" x1="328" x2="328" xlink:href="#New_Gradient_Swatch_2" y1="90.833" y2="408.24"/><g id="GD001"><path d="m432 456a16 16 0 0 1 -32 0v-24a8 8 0 0 0 -8-8h-360a8 8 0 0 0 -8 8v24a32.036 32.036 0 0 0 32 32h320v-16h-320a16.019 16.019 0 0 1 -16-16v-16h344v16a32 32 0 0 0 64 0v-104h-16z" fill="url(#New_Gradient_Swatch_2)"/><path d="m80 136h352v136h16v-184a32.036 32.036 0 0 0 -32-32h-8v-8a32 32 0 0 0 -64 0v8h-16v-8a32 32 0 0 0 -64 0v8h-16v-8a32 32 0 0 0 -64 0v8h-16v-8a32 32 0 0 0 -64 0v8h-8a32.036 32.036 0 0 0 -32 32v320h16zm16-64h8a32.036 32.036 0 0 0 32 32h8v-16h-8a16.019 16.019 0 0 1 -16-16v-24a16 16 0 0 1 32 0v8h-16v16h48a32.036 32.036 0 0 0 32 32h8v-16h-8a16.019 16.019 0 0 1 -16-16v-24a16 16 0 0 1 32 0v8h-16v16h48a32.036 32.036 0 0 0 32 32h8v-16h-8a16.019 16.019 0 0 1 -16-16v-24a16 16 0 0 1 32 0v8h-16v16h48a32.036 32.036 0 0 0 32 32h8v-16h-8a16.019 16.019 0 0 1 -16-16v-24a16 16 0 0 1 32 0v8h-16v16h40a16.019 16.019 0 0 1 16 16v32h-352v-32a16.019 16.019 0 0 1 16-16z" fill="url(#New_Gradient_Swatch_2-2)"/><path d="m152 168a8 8 0 0 0 -8-8h-32a8 8 0 0 0 -8 8v32a8 8 0 0 0 8 8h32a8 8 0 0 0 8-8zm-16 24h-16v-16h16z" fill="url(#New_Gradient_Swatch_2-3)"/><path d="m216 168a8 8 0 0 0 -8-8h-32a8 8 0 0 0 -8 8v32a8 8 0 0 0 8 8h32a8 8 0 0 0 8-8zm-16 24h-16v-16h16z" fill="url(#New_Gradient_Swatch_2-4)"/><path d="m280 168a8 8 0 0 0 -8-8h-32a8 8 0 0 0 -8 8v32a8 8 0 0 0 8 8h32a8 8 0 0 0 8-8zm-16 24h-16v-16h16z" fill="url(#New_Gradient_Swatch_2-2)"/><path d="m344 168a8 8 0 0 0 -8-8h-32a8 8 0 0 0 -8 8v32a8 8 0 0 0 8 8h32a8 8 0 0 0 8-8zm-16 24h-16v-16h16z" fill="url(#New_Gradient_Swatch_2-6)"/><path d="m408 168a8 8 0 0 0 -8-8h-32a8 8 0 0 0 -8 8v32a8 8 0 0 0 8 8h32a8 8 0 0 0 8-8zm-16 24h-16v-16h16z" fill="url(#New_Gradient_Swatch_2-7)"/><path d="m152 232a8 8 0 0 0 -8-8h-32a8 8 0 0 0 -8 8v32a8 8 0 0 0 8 8h32a8 8 0 0 0 8-8zm-16 24h-16v-16h16z" fill="url(#New_Gradient_Swatch_2-3)"/><path d="m208 224h-32a8 8 0 0 0 -8 8v32a8 8 0 0 0 8 8h32a8 8 0 0 0 8-8v-32a8 8 0 0 0 -8-8zm-8 32h-16v-16h16z" fill="url(#New_Gradient_Swatch_2-4)"/><path d="m272 224h-32a8 8 0 0 0 -8 8v32a8 8 0 0 0 8 8h32a8 8 0 0 0 8-8v-32a8 8 0 0 0 -8-8zm-8 32h-16v-16h16z" fill="url(#New_Gradient_Swatch_2-2)"/><path d="m336 224h-32a8 8 0 0 0 -8 8v32a8 8 0 0 0 8 8h32a8 8 0 0 0 8-8v-32a8 8 0 0 0 -8-8zm-8 32h-16v-16h16z" fill="url(#New_Gradient_Swatch_2-6)"/><path d="m400 224h-32a8 8 0 0 0 -8 8v32a8 8 0 0 0 8 8h32a8 8 0 0 0 8-8v-32a8 8 0 0 0 -8-8zm-8 32h-16v-16h16z" fill="url(#New_Gradient_Swatch_2-7)"/><path d="m128 288a24 24 0 1 0 24 24 24.027 24.027 0 0 0 -24-24zm0 32a8 8 0 1 1 8-8 8.009 8.009 0 0 1 -8 8z" fill="url(#New_Gradient_Swatch_2-3)"/><path d="m112 352a8 8 0 0 0 -8 8v32a8 8 0 0 0 8 8h32a8 8 0 0 0 8-8v-32a8 8 0 0 0 -8-8zm24 32h-16v-16h16z" fill="url(#New_Gradient_Swatch_2-3)"/><path d="m208 400a8 8 0 0 0 8-8v-32a8 8 0 0 0 -8-8h-32a8 8 0 0 0 -8 8v32a8 8 0 0 0 8 8zm-24-32h16v16h-16z" fill="url(#New_Gradient_Swatch_2-4)"/><path d="m272 400a8 8 0 0 0 8-8v-32a8 8 0 0 0 -8-8h-32a8 8 0 0 0 -8 8v32a8 8 0 0 0 8 8zm-24-32h16v16h-16z" fill="url(#New_Gradient_Swatch_2-2)"/><path d="m336 400a8 8 0 0 0 8-8v-32a8 8 0 0 0 -8-8h-32a8 8 0 0 0 -8 8v32a8 8 0 0 0 8 8zm-24-32h16v16h-16z" fill="url(#New_Gradient_Swatch_2-6)"/><path d="m400 400a8 8 0 0 0 8-8v-32a8 8 0 0 0 -8-8h-32a8 8 0 0 0 -8 8v32a8 8 0 0 0 8 8zm-24-32h16v16h-16z" fill="url(#New_Gradient_Swatch_2-7)"/><path d="m464 288h-272a8 8 0 0 0 -5.657 2.343l-16 16a8 8 0 0 0 0 11.314l16 16a8 8 0 0 0 5.657 2.343h272a24 24 0 0 0 0-48zm-276.687 24 8-8h236.687v16h-236.687zm276.687 8h-16v-16h16a8 8 0 0 1 0 16z" fill="url(#New_Gradient_Swatch_2-19)"/></g></svg>