<svg id="line" height="512" viewBox="0 0 64 64" width="512" xmlns="http://www.w3.org/2000/svg"><g fill="#c4a2fc"><path d="m14.342 46.707c-1.729 1.728-1.159 3.916-.7 5.674.544 2.1.6 2.029-.3 3.982-.686 1.483-1.54 3.328-.216 4.651 1.511 1.511 4.718 2.066 6.981 1.977a10.019 10.019 0 0 0 7.381-3.257c3.414-3.982 3.39-9.583-.055-13.027a9.263 9.263 0 0 0 -13.091 0z"/><path d="m23.109 36.165a7.011 7.011 0 0 0 2.041 5.307l7.571 7.571a6.988 6.988 0 0 0 8.69.962l-17.223-17.223a7.007 7.007 0 0 0 -1.079 3.383z"/><path d="m61.03 19.37-6.207-6.207a4.985 4.985 0 0 0 -6.691-.342c-5.408 4.404-22.143 18.009-22.632 18.441l17.432 17.438c.4-.455 12.188-14.959 18.441-22.636a4.986 4.986 0 0 0 -.343-6.694z"/></g><g fill="#151a6a"><path d="m48.5 5h-3v-1a3 3 0 0 0 -6 0v1h-2v-1a3 3 0 0 0 -6 0v1h-2v-1a3 3 0 0 0 -6 0v1h-2v-1a3 3 0 0 0 -6 0v1h-2v-1a3 3 0 0 0 -6 0v1h-3a3 3 0 0 0 -3 3v40a3 3 0 0 0 3 3h44a3 3 0 0 0 3-3v-40a3 3 0 0 0 -3-3zm-7-1a1 1 0 0 1 2 0v4a1 1 0 0 1 -2 0zm-8 0a1 1 0 0 1 2 0v4a1 1 0 0 1 -2 0zm-8 0a1 1 0 0 1 2 0v4a1 1 0 0 1 -2 0zm-8 0a1 1 0 0 1 2 0v4a1 1 0 0 1 -2 0zm-8 0a1 1 0 0 1 2 0v4a1 1 0 0 1 -2 0zm40 44a1 1 0 0 1 -1 1h-44a1 1 0 0 1 -1-1v-40a1 1 0 0 1 1-1h3v1a3 3 0 0 0 6 0v-1h2v1a3 3 0 0 0 6 0v-1h2v1a3 3 0 0 0 6 0v-1h2v1a3 3 0 0 0 6 0v-1h2v1a3 3 0 0 0 6 0v-1h3a1 1 0 0 1 1 1z"/><path d="m42.5 35a1 1 0 0 0 -1 1c0 1.5-.292 5-3 5-1.456 0-2.56-2.324-3.727-4.784-.428-.9-.873-1.837-1.366-2.723a10.973 10.973 0 0 0 4.027-4.493c.36-.98.834-3.421-2.528-4.915-5.01-2.226-11.331 1.5-16.412 4.5-2.565 1.513-5.758 3.4-6.623 2.9-.179-.1-.371-.548-.371-1.489 0-5.268 7.535-11.149 7.611-11.208a1 1 0 0 0 -1.222-1.584c-.342.268-8.389 6.545-8.389 12.796 0 .6 0 2.438 1.379 3.226 1.874 1.069 4.706-.6 8.631-2.917 4.686-2.764 10.519-6.2 14.584-4.395 1.775.789 1.735 1.655 1.463 2.4a8.745 8.745 0 0 1 -3.208 3.506 5.912 5.912 0 0 0 -4.849-2.82c-1.3 0-4.347.953-4.976 3.783-.411 1.848.261 3.219 1.8 3.67 1.808.529 4.739-.367 7.4-1.884.437.794.845 1.654 1.249 2.5 1.377 2.918 2.806 5.931 5.527 5.931 3.084 0 5-2.682 5-7a1 1 0 0 0 -1-1zm-17.617-.466c-.245-.073-.656-.193-.407-1.317.372-1.671 2.375-2.217 3.024-2.217a4.009 4.009 0 0 1 3.149 1.89c-2.21 1.237-4.569 1.994-5.766 1.644z"/></g></svg>