<svg id="GD001" height="512" viewBox="0 0 512 512" width="512" xmlns="http://www.w3.org/2000/svg" xmlns:xlink="http://www.w3.org/1999/xlink"><linearGradient id="New_Gradient_Swatch_2" gradientUnits="userSpaceOnUse" x1="256" x2="256" y1="40.485" y2="420.088"><stop offset="0" stop-color="#fc5c7d"/><stop offset=".129" stop-color="#f35e85"/><stop offset=".343" stop-color="#d9659b"/><stop offset=".616" stop-color="#b070bf"/><stop offset=".934" stop-color="#777ff0"/><stop offset="1" stop-color="#6a82fb"/></linearGradient><linearGradient id="New_Gradient_Swatch_2-4" x1="168" x2="168" xlink:href="#New_Gradient_Swatch_2" y1="40.485" y2="420.088"/><linearGradient id="New_Gradient_Swatch_2-5" x1="360" x2="360" xlink:href="#New_Gradient_Swatch_2" y1="40.485" y2="420.088"/><linearGradient id="New_Gradient_Swatch_2-7" x1="384" x2="384" xlink:href="#New_Gradient_Swatch_2" y1="40.485" y2="420.088"/><linearGradient id="New_Gradient_Swatch_2-8" x1="312" x2="312" xlink:href="#New_Gradient_Swatch_2" y1="40.485" y2="420.088"/><linearGradient id="New_Gradient_Swatch_2-9" x1="424" x2="424" xlink:href="#New_Gradient_Swatch_2" y1="40.485" y2="420.088"/><linearGradient id="New_Gradient_Swatch_2-10" x1="392" x2="392" xlink:href="#New_Gradient_Swatch_2" y1="40.485" y2="420.088"/><linearGradient id="New_Gradient_Swatch_2-11" x1="240" x2="240" xlink:href="#New_Gradient_Swatch_2" y1="40.485" y2="420.088"/><g fill="url(#New_Gradient_Swatch_2)"><path d="m456 360h-400v-160h-16v208a32.036 32.036 0 0 0 32 32h124.944l-4.156 40h-24.788v16h176v-16h-24.788l-4.156-40h124.944a32.036 32.036 0 0 0 32-32v-208h-16zm-152.874 120h-94.252l4.156-40h85.94zm152.874-72a16.019 16.019 0 0 1 -16 16h-368a16.019 16.019 0 0 1 -16-16v-32h400z"/><path d="m248 392h16v16h-16z"/><path d="m487.149 116.425h.006l-32-64a8 8 0 0 0 -7.155-4.425h-384a8 8 0 0 0 -7.155 4.422l-32 64h.006a7.949 7.949 0 0 0 -.851 3.578v24a39.986 39.986 0 0 0 72 23.972 39.958 39.958 0 0 0 64 0 39.958 39.958 0 0 0 64 0 39.958 39.958 0 0 0 64 0 39.958 39.958 0 0 0 64 0 39.958 39.958 0 0 0 64 0 39.986 39.986 0 0 0 72-23.972v-24a7.949 7.949 0 0 0 -.851-3.575zm-399.149 27.575a24 24 0 0 1 -48 0v-16h48zm2.456-32h-45.512l24-48h39.512zm61.544 32a24 24 0 0 1 -48 0v-16h48zm1.754-32h-46.21l18-48h40.21zm62.246 32a24 24 0 0 1 -48 0v-16h48zm.938-32h-46.692l12-48h40.692zm22.124-48h33.876l6 48h-45.876zm40.938 80a24 24 0 0 1 -48 0v-16h48zm9.062-80h40.692l12 48h-46.692zm54.938 80a24 24 0 0 1 -48 0v-16h48zm2.246-80h40.21l18 48h-46.21zm61.754 80a24 24 0 0 1 -48 0v-16h48zm-4.456-80h39.512l24 48h-45.512zm68.456 80a24 24 0 0 1 -48 0v-16h48z"/></g><path d="m80 248a24.039 24.039 0 0 0 17.53 23.107l14.709 58.833a8 8 0 0 0 7.761 6.06h96a8 8 0 0 0 7.761-6.06l14.709-58.833a24 24 0 0 0 -6.47-47.107h-19.056l10.211-20.422-14.31-7.156-13.789 27.578h-54.112l-13.789-27.578-14.31 7.156 10.211 20.422h-19.056a24.028 24.028 0 0 0 -24 24zm38.246 40-4-16h22.692l2 16zm8 32-4-16h18.692l2 16zm50.692 0h-17.876l-2-16h21.876zm4-32h-25.876l-2-16h29.876zm28.816 32h-16.692l2-16h18.692zm8-32h-20.692l2-16h22.692zm14.246-48a8 8 0 0 1 0 16h-128a8 8 0 0 1 0-16z" fill="url(#New_Gradient_Swatch_2-4)"/><path d="m288 240h144v16h-144z" fill="url(#New_Gradient_Swatch_2-5)"/><path d="m288 272h144v16h-144z" fill="url(#New_Gradient_Swatch_2-5)"/><path d="m336 208h96v16h-96z" fill="url(#New_Gradient_Swatch_2-7)"/><path d="m304 208h16v16h-16z" fill="url(#New_Gradient_Swatch_2-8)"/><path d="m416 320h16v16h-16z" fill="url(#New_Gradient_Swatch_2-9)"/><path d="m384 320h16v16h-16z" fill="url(#New_Gradient_Swatch_2-10)"/><path d="m112 16h256v16h-256z" fill="url(#New_Gradient_Swatch_2-11)"/><path d="m384 16h16v16h-16z" fill="url(#New_Gradient_Swatch_2-10)"/></svg>