<svg height="512" viewBox="0 0 512 512" width="512" xmlns="http://www.w3.org/2000/svg" xmlns:xlink="http://www.w3.org/1999/xlink"><linearGradient id="New_Gradient_Swatch_2" gradientUnits="userSpaceOnUse" x1="408" x2="408" y1="76.306" y2="503.5"><stop offset="0" stop-color="#fc5c7d"/><stop offset=".129" stop-color="#f35e85"/><stop offset=".343" stop-color="#d9659b"/><stop offset=".616" stop-color="#b070bf"/><stop offset=".934" stop-color="#777ff0"/><stop offset="1" stop-color="#6a82fb"/></linearGradient><linearGradient id="New_Gradient_Swatch_2-3" x1="184" x2="184" xlink:href="#New_Gradient_Swatch_2" y1="76.306" y2="503.5"/><linearGradient id="New_Gradient_Swatch_2-4" x1="211.492" x2="211.492" xlink:href="#New_Gradient_Swatch_2" y1="76.306" y2="503.5"/><linearGradient id="New_Gradient_Swatch_2-5" x1="104" x2="104" xlink:href="#New_Gradient_Swatch_2" y1="76.306" y2="503.5"/><linearGradient id="New_Gradient_Swatch_2-6" x1="208" x2="208" xlink:href="#New_Gradient_Swatch_2" y1="76.306" y2="503.5"/><linearGradient id="New_Gradient_Swatch_2-7" x1="192" x2="192" xlink:href="#New_Gradient_Swatch_2" y1="76.306" y2="503.5"/><g id="GD001"><path d="m472 368h-16v-24a8 8 0 0 0 -8-8h-80a8 8 0 0 0 -8 8v24h-16a24.028 24.028 0 0 0 -24 24v80a8 8 0 0 0 2.343 5.657l16 16a8 8 0 0 0 5.657 2.343h128a8 8 0 0 0 5.657-2.343l16-16a8 8 0 0 0 2.343-5.657v-80a24.028 24.028 0 0 0 -24-24zm-96-16h64v16h-64zm-32 32h128a8.009 8.009 0 0 1 8 8v16h-144v-16a8.009 8.009 0 0 1 8-8zm124.687 96h-121.374l-11.313-11.314v-44.686h144v44.686z" fill="url(#New_Gradient_Swatch_2)"/><path d="m400 291.314v28.686h16v-28.686l29.657-29.657a8 8 0 0 0 2.343-5.657v-232a8 8 0 0 0 -8-8 72.081 72.081 0 0 0 -72 72v168a8 8 0 0 0 2.343 5.657zm-16-38.627v-89.373l16 16v89.373zm48-48-16 16v-17.373l16-16zm-16 64v-25.373l16-16v25.373zm16-236.117v132.116l-16 16v-60.686h-16v36.686l-16-16v-52.686a56.086 56.086 0 0 1 48-55.43z" fill="url(#New_Gradient_Swatch_2)"/><path d="m72 88a24.028 24.028 0 0 1 24-24h256v-16h-256a40.045 40.045 0 0 0 -40 40v304h-32a8 8 0 0 0 -8 8v32a40.045 40.045 0 0 0 40 40h248v-16h-248a24.027 24.027 0 0 1 -24-24v-24h272v-16h-232z" fill="url(#New_Gradient_Swatch_2-3)"/><path d="m308.748 90.294c-7.021-5.618-16.263-6.08-24.724-1.236-16.313 9.341-23.78 38.526-33.234 75.477-.069.272-.14.545-.209.818a148.559 148.559 0 0 1 -19.194 2.67c-42.305 3.254-74.369-2.261-85.771-14.754-4.22-4.624-5.625-10.08-4.422-17.17 1.968-11.6 8.592-20.63 19.691-26.846 10.55-5.908 33.47-11.383 47.316-5.829 22.62 9.078 23.768 26.122 23.8 26.747l15.999-.437c-.031-1.138-1.137-28.036-33.837-41.159-14.063-5.642-40.763-4.675-61.098 6.719-15.308 8.574-24.868 21.759-27.646 38.128-2.008 11.834.89 22.427 8.379 30.633 10.707 11.732 36.545 24.711 98.815 19.922q7.159-.552 13.537-1.559c-5.681 21.332-12.325 43.34-21.4 60.893q-1.147 2.217-2.317 4.295c-12.374-2.022-24.417-4.421-35.651-6.661-40.888-8.149-70.43-14.036-80.816 3.652-4.073 6.936-3.361 17.043 1.816 25.747 5.818 9.773 21.903 25.656 65.038 25.656 2 0 4.067-.035 6.185-.105 22.639-.755 38.986-12.925 51.383-30.881 28.055 3.981 57.411 5.446 83.6-1.264l-3.972-15.5c-21.672 5.553-46.431 4.842-70.775 1.8 10.873-21.275 18.168-47.188 24.47-71.5 38.328-11.218 50.131-35.174 53.636-46.542 5.069-16.451 1.534-33.608-8.599-41.714zm-130.276 189.606c-41.045 1.376-53.492-11.948-56.935-17.737-2.76-4.641-2.372-8.444-1.771-9.466.842-1.436 3.727-3.634 13.476-3.634 1.383 0 2.905.045 4.578.142 12.071.7 27.718 3.818 45.838 7.429 9.176 1.829 18.868 3.76 28.865 5.519-9.766 11.585-20.877 17.311-34.051 17.747zm123.583-152.608c-2.388 7.745-9.975 23.033-33.574 32.678 6.832-26.408 14.067-51.629 23.5-57.028a7.922 7.922 0 0 1 3.879-1.246 4.462 4.462 0 0 1 2.895 1.091c4.277 3.426 6.683 13.529 3.3 24.505z" fill="url(#New_Gradient_Swatch_2-4)"/><path d="m96 320h16v16h-16z" fill="url(#New_Gradient_Swatch_2-5)"/><path d="m128 320h160v16h-160z" fill="url(#New_Gradient_Swatch_2-6)"/><path d="m96 352h192v16h-192z" fill="url(#New_Gradient_Swatch_2-7)"/></g></svg>