<?xml version="1.0"?>
<svg xmlns="http://www.w3.org/2000/svg" xmlns:xlink="http://www.w3.org/1999/xlink" viewBox="0 0 64 64" width="512" height="512"><defs><linearGradient id="New_Gradient_Swatch_2" x1="32" y1="0.762" x2="32" y2="64.907" gradientUnits="userSpaceOnUse"><stop offset="0" stop-color="#fc5c7d"/><stop offset="0.129" stop-color="#f35e85"/><stop offset="0.343" stop-color="#d9659b"/><stop offset="0.616" stop-color="#b070bf"/><stop offset="0.934" stop-color="#777ff0"/><stop offset="1" stop-color="#6a82fb"/></linearGradient><linearGradient id="New_Gradient_Swatch_2-2" x1="34.21" y1="0.762" x2="34.21" y2="64.907" xlink:href="#New_Gradient_Swatch_2"/><linearGradient id="New_Gradient_Swatch_2-3" x1="28" y1="0.762" x2="28" y2="64.907" xlink:href="#New_Gradient_Swatch_2"/><linearGradient id="New_Gradient_Swatch_2-4" x1="16.934" y1="0.762" x2="16.934" y2="64.907" xlink:href="#New_Gradient_Swatch_2"/><linearGradient id="New_Gradient_Swatch_2-5" x1="28.781" y1="0.762" x2="28.781" y2="64.907" xlink:href="#New_Gradient_Swatch_2"/></defs><title>Creative-Idea-Design-Computer-thinking</title><g id="_001GradL" data-name="001GradL"><path d="M56,51h3V49H56V47h5a1,1,0,0,0,.707-1.707l-6-6A1,1,0,0,0,55,39H51.4l3.586-19.223a1,1,0,0,0-.8-1.167l-5.9-1.1a1.009,1.009,0,0,0-.749.158,1,1,0,0,0-.417.642L43.26,39H40V32a1,1,0,0,0-1-1V29.943a13,13,0,1,0-14,0V31a1,1,0,0,0-1,1v7H20.393L17.915,23.3a1.007,1.007,0,0,0-.174-.425l-3.9-5.459a.986.986,0,0,0-.969-.406,1,1,0,0,0-.8.685l-2.027,6.4a1,1,0,0,0-.035.458L12.294,39H9a1,1,0,0,0-.707.293l-6,6A1,1,0,0,0,3,47H8V60H2v2H62V60H56ZM45.967,35.389l1.967.367.367-1.967-1.967-.367.367-1.965,1.966.366.367-1.967-1.966-.366.366-1.966,1.966.368.368-1.967L47.8,25.558l.367-1.966,1.966.367.366-1.967-1.965-.366.366-1.967,3.932.735L49.363,39H45.294ZM38,33v2H26V33Zm-7.039-8.274-1.375-4.815,1.967.984a1,1,0,0,0,.894,0l1.967-.984-1.375,4.815A.97.97,0,0,0,33,25v6H31V25A.97.97,0,0,0,30.961,24.726ZM26.5,28.517a11,11,0,1,1,11,0,1,1,0,0,0-.5.865V31H35V25.14l1.495-5.231,1.8,1.8,1.414-1.414-3-3a1,1,0,0,0-1.154-.188L32,18.882l-3.553-1.777a1,1,0,0,0-1.154.188l-3,3,1.414,1.414,1.8-1.8L29,25.14V31H27V29.382A1,1,0,0,0,26.5,28.517ZM26,37H38v2H26Zm28.586,4,4,4H27.414l-4-4ZM13.376,20.209l1.8,2.515-2.731.431Zm-1.233,5.017L16.1,24.6,18.368,39H14.319ZM9.414,41h9.172l-4,4H5.414ZM10,47h5a1,1,0,0,0,.707-.293L21,41.414l5.293,5.293A1,1,0,0,0,27,47H54v2H31v2H54v9H22V44H20V60H10Z" style="fill:url(#New_Gradient_Swatch_2)"/><path d="M32,12a7.027,7.027,0,0,1,6.064,3.5l1.731-1a9.009,9.009,0,0,0-11.171-3.844l.752,1.854A6.935,6.935,0,0,1,32,12Z" style="fill:url(#New_Gradient_Swatch_2-2)"/><rect x="27" y="49" width="2" height="2" style="fill:url(#New_Gradient_Swatch_2-3)"/><path d="M18.267,12.954l-1.817-.836a16.5,16.5,0,0,0-.848,2.27l1.919.56A14.6,14.6,0,0,1,18.267,12.954Z" style="fill:url(#New_Gradient_Swatch_2-4)"/><path d="M29.361,4.43a15.076,15.076,0,0,1,9.82,1.5l.935-1.768a17.292,17.292,0,0,0-22.669,6.1l1.7,1.056A15.2,15.2,0,0,1,29.361,4.43Z" style="fill:url(#New_Gradient_Swatch_2-5)"/></g></svg>
