<svg id="Calque_1" data-name="Calque 1" xmlns="http://www.w3.org/2000/svg" xmlns:xlink="http://www.w3.org/1999/xlink" viewBox="0 0 740.65 176.98"><defs><style>.cls-1{fill:url(#Dégradé_sans_nom_219);}.cls-2{fill:url(#Dégradé_sans_nom_162);}.cls-3{fill:url(#Dégradé_sans_nom_141);}.cls-4{fill:url(#Dégradé_sans_nom_141-2);}.cls-5{fill:url(#Dégradé_sans_nom_141-3);}.cls-6{fill:url(#Dégradé_sans_nom_184);}.cls-7{fill:url(#Dégradé_sans_nom_231);}.cls-8{fill:url(#Dégradé_sans_nom_141-4);}.cls-9{fill:url(#Dégradé_sans_nom_141-5);}.cls-10{fill:url(#Dégradé_sans_nom_157);}.cls-11{fill:url(#Dégradé_sans_nom_141-6);}.cls-12{fill:#1d71b8;}.cls-13{fill:none;stroke:#1d71b8;stroke-miterlimit:10;}</style><linearGradient id="Dégradé_sans_nom_219" x1="65.42" y1="313.96" x2="206.14" y2="313.96" gradientUnits="userSpaceOnUse"><stop offset="0" stop-color="#fff"/><stop offset="0.03" stop-color="#e3edf6"/><stop offset="0.07" stop-color="#bad4e9"/><stop offset="0.12" stop-color="#94bcdd"/><stop offset="0.18" stop-color="#74a7d3"/><stop offset="0.24" stop-color="#5896cb"/><stop offset="0.3" stop-color="#4288c4"/><stop offset="0.38" stop-color="#327ebe"/><stop offset="0.48" stop-color="#2676bb"/><stop offset="0.62" stop-color="#1f72b9"/><stop offset="1" stop-color="#1d71b8"/></linearGradient><linearGradient id="Dégradé_sans_nom_162" x1="67.92" y1="255.71" x2="156.68" y2="255.71" gradientUnits="userSpaceOnUse"><stop offset="0" stop-color="#fff"/><stop offset="0.5" stop-color="#1d71b8"/></linearGradient><linearGradient id="Dégradé_sans_nom_141" x1="122.77" y1="229.85" x2="198.41" y2="229.85" gradientUnits="userSpaceOnUse"><stop offset="0" stop-color="#fff"/><stop offset="1" stop-color="#1d71b8"/></linearGradient><linearGradient id="Dégradé_sans_nom_141-2" x1="122.77" y1="229.85" x2="198.41" y2="229.85" xlink:href="#Dégradé_sans_nom_141"/><linearGradient id="Dégradé_sans_nom_141-3" x1="122.76" y1="236.15" x2="185.34" y2="236.15" xlink:href="#Dégradé_sans_nom_141"/><linearGradient id="Dégradé_sans_nom_184" x1="109.78" y1="280.25" x2="210.25" y2="280.25" gradientUnits="userSpaceOnUse"><stop offset="0" stop-color="#fff"/><stop offset="0.04" stop-color="#eaf2f8"/><stop offset="0.15" stop-color="#b4d0e8"/><stop offset="0.26" stop-color="#86b3d9"/><stop offset="0.37" stop-color="#609bcd"/><stop offset="0.48" stop-color="#4389c4"/><stop offset="0.59" stop-color="#2e7cbd"/><stop offset="0.7" stop-color="#2174b9"/><stop offset="0.8" stop-color="#1d71b8"/></linearGradient><linearGradient id="Dégradé_sans_nom_231" x1="158.69" y1="330.74" x2="196.62" y2="330.74" gradientUnits="userSpaceOnUse"><stop offset="0" stop-color="#1d71b8"/><stop offset="0.05" stop-color="#2978bc"/><stop offset="0.52" stop-color="#9bc0e0"/><stop offset="0.85" stop-color="#e3edf6"/><stop offset="1" stop-color="#fff"/></linearGradient><linearGradient id="Dégradé_sans_nom_141-4" x1="123.1" y1="230.19" x2="198.75" y2="230.19" xlink:href="#Dégradé_sans_nom_141"/><linearGradient id="Dégradé_sans_nom_141-5" x1="123.1" y1="236.49" x2="185.67" y2="236.49" xlink:href="#Dégradé_sans_nom_141"/><linearGradient id="Dégradé_sans_nom_157" x1="85.52" y1="296.7" x2="147.51" y2="296.7" gradientUnits="userSpaceOnUse"><stop offset="0" stop-color="#fff"/><stop offset="0.05" stop-color="#f7fafc"/><stop offset="0.13" stop-color="#dfebf5"/><stop offset="0.23" stop-color="#bad4e9"/><stop offset="0.35" stop-color="#85b3d9"/><stop offset="0.48" stop-color="#4389c4"/><stop offset="0.55" stop-color="#1d71b8"/></linearGradient><linearGradient id="Dégradé_sans_nom_141-6" x1="90.2" y1="230.56" x2="122.45" y2="230.56" xlink:href="#Dégradé_sans_nom_141"/></defs><path class="cls-1" d="M206.14,318.05a50.31,50.31,0,0,1-42.39,49.67c-.57.13-1.14.25-1.73.35-2,.19-4.1.32-6.17.37-.77,0-1.53,0-2.3,0a88.17,88.17,0,0,1-85.63-109c.06,1.09.14,2.17.24,3.25,0,.18,0,.37,0,.56l.06.58c.07.69.15,1.38.24,2.06,0,.24.07.47.1.7s0,.33.07.5c.08.6.18,1.21.28,1.81l0,.16c0,.29.09.57.14.85s.07.35.1.52.1.59.16.88.15.74.23,1.11.14.7.22,1.05.15.67.23,1,.21.91.32,1.36c.07.26.13.52.2.78s.16.61.25.92.14.54.22.81.16.58.25.86l.06.22.27.9q.23.75.48,1.5l.24.74c.1.29.19.57.29.84s.17.48.25.71l.29.8c.1.27.2.55.31.82s.23.61.35.92c.4,1,.82,2,1.25,3,.1.24.21.48.31.71l.3.66c.24.52.48,1,.73,1.55.14.3.28.59.43.88l.33.67c.36.72.73,1.42,1.11,2.13l.36.65.66,1.19.44.74Q81,300.93,82.32,303c.14.21.28.43.43.64A88.46,88.46,0,0,0,93.87,317c.24.25.49.49.74.73.46.45.92.89,1.4,1.32l.11.11a87.74,87.74,0,0,0,51.39,23q4.14.39,8.39.39c.76,0,1.53,0,2.29,0q3.12-.07,6.18-.37c.58-.1,1.16-.22,1.73-.35a50.35,50.35,0,0,0,39.31-32.32A50.31,50.31,0,0,1,206.14,318.05Z" transform="translate(-65.42 -191.58)"/><path class="cls-2" d="M156.68,192.23l-1.17.33-1.38.42a98.69,98.69,0,0,0-13.28,5.15c-1,.46-1.95.94-2.91,1.43a105.6,105.6,0,0,0-15.49,9.69c-14.38,10.84-26,25.37-32.2,42-.16.43-.31.85-.46,1.28a74.54,74.54,0,0,0-4.27,24.72,87.71,87.71,0,0,0,10.6,41.93l-.11-.11c-.48-.43-.94-.87-1.4-1.32-.25-.24-.5-.48-.74-.73a88.46,88.46,0,0,1-11.12-13.43c-.15-.21-.29-.43-.43-.64q-1.33-2-2.55-4.11l-.44-.74-.66-1.19-.36-.65c-.37-.7-.74-1.4-1.09-2.1l0,0-.33-.67c-.15-.29-.29-.58-.43-.88-.25-.51-.49-1-.73-1.55l-.3-.66c-.1-.23-.21-.47-.31-.71-.43-1-.85-2-1.25-3-.12-.31-.24-.61-.35-.92s-.21-.55-.31-.82l-.29-.8c-.08-.23-.17-.47-.25-.71s-.19-.55-.29-.84l-.24-.74q-.25-.75-.48-1.5l-.27-.9-.06-.22c-.09-.28-.17-.57-.25-.86s-.15-.53-.22-.81-.17-.61-.25-.92-.13-.52-.2-.78c-.11-.45-.22-.9-.32-1.36s-.16-.66-.23-1-.15-.7-.22-1.05-.16-.74-.23-1.11-.11-.58-.16-.88-.07-.34-.1-.52-.1-.56-.14-.85l0-.16c-.1-.6-.2-1.21-.28-1.81,0-.17-.05-.33-.07-.5s-.06-.46-.1-.7c-.09-.68-.17-1.37-.24-2.06l-.06-.58c0-.19,0-.38,0-.56-.1-1.08-.18-2.16-.24-3.25,5-20.73,19.41-38.61,38-50.71a101.28,101.28,0,0,1,50.73-16.51Z" transform="translate(-65.42 -191.58)"/><path class="cls-3" d="M163.92,267.26a23.62,23.62,0,0,1-3.88.41h.55c1.21,0,2.4-.06,3.58-.17Zm-4.55.4a39.09,39.09,0,0,1-5.23-.53,25.08,25.08,0,0,0,5.23.55h0Zm39-38.64c0-.28,0-.55,0-.83l0-.59c0-.18,0-.35,0-.53s0-.57-.07-.86,0-.43-.07-.65a.49.49,0,0,0,0-.12c0-.23-.06-.46-.09-.68v0c0-.12,0-.24,0-.35-.07-.47-.14-.93-.23-1.38l-.06-.34c0-.18-.07-.35-.11-.53s-.05-.25-.08-.37,0-.26-.08-.38l-.06-.27c-.05-.21-.1-.42-.16-.64l-.09-.33c-.1-.38-.2-.76-.32-1.13l-.12-.4c-.08-.26-.17-.53-.26-.8l-.15-.46-.15-.41c-.13-.36-.27-.72-.41-1.08-.06-.15-.13-.31-.19-.47s-.12-.29-.19-.43l-.23-.53h0s0,0,0,0-.07-.15-.1-.22l-.12-.26-.24-.51-.33-.65c-.27-.55-.56-1.08-.86-1.6l-.18-.31c-.09-.16-.18-.32-.28-.48l-.4-.65-.34-.53-.46-.68v0c-.17-.26-.35-.51-.54-.76a.43.43,0,0,0,0-.07h0l-.18-.24-.29-.39-.26-.34c-.22-.28-.44-.56-.68-.84s-.25-.32-.39-.47l-.21-.25-.48-.54-.2-.22-.19-.21-.29-.3-.28-.29a3.83,3.83,0,0,0-.28-.29h0l-.2-.19a1.89,1.89,0,0,0-.2-.2l-.4-.39c-.29-.28-.6-.56-.91-.84l-.33-.29L185,201l-.37-.31-.13-.1c-.12-.1-.24-.21-.37-.3-.29-.24-.58-.46-.88-.69l-.51-.37c-.12-.1-.25-.19-.38-.28l-.25-.17-.12-.08c-.14-.11-.29-.2-.44-.3l-.51-.34h0c-.2-.13-.4-.26-.61-.38l-.42-.26-.07,0-.33-.2-.09-.05-.38-.22-.35-.19-.34-.18c-.3-.17-.61-.33-.91-.48l-.76-.37-.39-.18c-.35-.17-.71-.32-1.07-.47l-.89-.37-.53-.2-.8-.29-.73-.25-.07,0h0l-.39-.12-.39-.12-1.13-.32-.4-.11-.33-.08h0l-.21-.05-.29-.07c-.43-.1-.87-.2-1.31-.28l-.45-.08h0l-.6-.1-.86-.13a51,51,0,0,0-5.42-.37h-1.09l-.93,0h-.22l-.54,0-.55.05-.45,0h0l-.66.08-.33,0-.59.08-.32,0c-.19,0-.38.06-.56.09l-.41.07-.44.08-.45.09-.44.1-.34.07h0c-.48.11-1,.23-1.44.36-.24.07-.49.13-.73.21l-.41.12h0l-.58.18-.6.2-.38.14c-.23.07-.45.16-.67.24l-.82.32c-.1,0-.19.08-.29.12-.38.15-.75.32-1.12.48l-.25.12c-.48.22-1,.45-1.44.7l-.48.25-.68.37c-.39.21-.77.44-1.15.67s-.47.29-.7.44-.29.18-.43.27-.33.21-.49.33c-.38.25-.76.52-1.13.79l-.41.31-.41.31-.64.51c-.23.18-.45.36-.66.55q-.66.56-1.29,1.14l-.62.58c-.2.2-.4.41-.61.61-.4.4-.79.82-1.17,1.25l-.57.64c-.37.43-.73.88-1.08,1.32l-.53.69c-.17.23-.34.45-.5.69s-.33.47-.49.7l-.48.72c-.12.19-.24.38-.35.57a1,1,0,0,0-.11.17c-.26.42-.52.85-.76,1.3l-.29.52c-.11.19-.21.39-.31.59-.21.4-.42.81-.61,1.22l-.21.46q-.14.27-.24.54c-.11.24-.22.49-.32.75l-.33.81a.14.14,0,0,1,0,.06c-.1.25-.19.5-.28.76s-.11.31-.16.47a2.67,2.67,0,0,0-.09.26h0a2,2,0,0,0-.08.22,0,0,0,0,0,0,0c0,.13-.09.27-.13.4l0,.06c0,.13-.07.25-.11.37s-.14.45-.2.68-.16.57-.23.85-.11.45-.16.67v0c0,.15-.08.3-.11.45-.16.71-.3,1.43-.41,2.16a3.06,3.06,0,0,0-.05.32s0,.07,0,.1l-.09.64-.09.74c0,.35-.07.7-.1,1-.1,1.07-.14,2.16-.14,3.25,0,.25,0,.5,0,.75v.22h0c0,.25,0,.51,0,.77,0,.46,0,.94.09,1.4,0,.18,0,.36,0,.54s0,.24,0,.36,0,.34.06.5,0,.41.08.62.06.49.1.73l0,.19.09.51a1.12,1.12,0,0,0,0,.21,2.56,2.56,0,0,0,.05.27c0,.18.07.36.1.53a1.77,1.77,0,0,1,0,.2l.12.54c0,.15.07.31.11.46q.14.59.3,1.17c0,.1.05.2.08.3s0,.2.09.3.1.37.16.55.09.28.13.42l.18.53.3.87c.12.33.24.66.38,1l.12.32q.25.62.54,1.23l.12.28c.21.46.43.92.66,1.37.14.27.28.54.43.81s.29.53.44.79.31.53.46.79.31.51.48.77.32.51.49.76l.26.37c.08.13.17.25.26.37s.26.37.4.55.23.32.35.47a.83.83,0,0,0,.11.15c.11.16.24.31.36.46l.42.53c.77.93,1.57,1.83,2.42,2.68l.3.3.43.42.45.42.45.41.26.23.26.23.17.14.49.42.85.67.36.28.45.34.32.23.29.21.3.21.18.12.55.36.47.31.66.41.59.35.34.2.47.26.48.26.44.23c.42.22.84.43,1.27.62l.62.29.62.27.41.17q1.07.43,2.16.81l.74.24.63.2.47.14.48.13.21.05h0c1,.28,2.11.51,3.19.7-.53-.11-1.06-.25-1.57-.39l-.74-.22-.79-.26-1-.38-.67-.28-.31-.14-.47-.22-.77-.38-.41-.22-.25-.14c-.61-.34-1.22-.72-1.8-1.11l-.27-.18,0,0-.29-.2-.35-.26c-.26-.2-.52-.39-.77-.6s-.24-.2-.36-.3c-.27-.22-.53-.45-.79-.68l-.76-.72,0,0-.41-.41-.4-.43c-.11-.11-.21-.23-.31-.35l-.22-.24c-.1-.12-.21-.24-.31-.37l-.36-.45c-.31-.39-.62-.8-.91-1.22l-.16-.24-.33-.5c-.11-.17-.22-.34-.32-.51a4.25,4.25,0,0,1-.27-.46,1,1,0,0,1-.1-.17c-.06-.1-.12-.2-.17-.3l-.06-.1-.31-.59c-.09-.18-.19-.37-.28-.56l-.06-.13v0h0c-.08-.16-.15-.31-.22-.48a2.71,2.71,0,0,1-.13-.3c-.1-.22-.2-.45-.29-.68l-.15-.39-.09-.25-.09-.24-.18-.53c0-.12-.08-.23-.11-.35l-.18-.61c0-.16-.09-.31-.13-.46s-.08-.31-.11-.46c-.16-.62-.28-1.25-.38-1.88,0-.16-.06-.32-.08-.48l-.06-.47a5,5,0,0,1-.06-.54,1.73,1.73,0,0,1,0-.32l0-.32c0-.21,0-.42,0-.64s0-.28,0-.41c0-.29,0-.59,0-.88A25,25,0,0,1,155,218c.2-.05.41-.08.61-.11l.48-.06.3,0,.33,0,.51-.05.34,0,.54,0h.33l.38,0h.57c.49,0,1,0,1.45,0l.48,0,.29,0q.45,0,.9.09l.66.09c.34.05.68.11,1,.18l.33.07.66.14.5.13.49.13.37.1.54.17c.18.06.36.11.53.18s.63.22.94.35l.19.07.29.12.29.13.29.12.5.23.95.47.21.12.21.11.21.12.43.25c.16.09.33.19.49.3l.32.19.44.3.41.28.79.58.39.3.39.31.37.32.37.32c.25.22.48.45.72.67s.24.23.35.35l.18.18a.23.23,0,0,1,.07.07l.05.06.21.22.26.27c.06.07.12.13.17.2l.2.22.19.22.33.39.48.62.23.3.22.3.43.62.18.28c.16.23.31.47.45.71l.17.28.27.47c.13.22.24.44.36.66s.16.3.23.46l.11.22c.08.16.16.33.23.49s.15.32.21.47.15.34.21.51c.21.51.4,1,.57,1.55l.09.28c.08.24.15.48.22.72,0,.09.05.18.07.26s0,.18.08.27.09.36.13.54.06.24.08.37,0,.13.05.2,0,.13,0,.2,0,.25.07.38.07.38.1.57c.07.38.12.76.17,1.14l.06.58c.07.78.11,1.57.11,2.36a26.16,26.16,0,0,1-.19,3.09,25.05,25.05,0,0,1-18.3,21.08c-.66.18-1.32.33-2,.45a23.62,23.62,0,0,1-3.88.41h.55c1.21,0,2.4-.06,3.58-.17l1-.11h.09l.51-.07.31,0,1.46-.25.32-.06c.51-.1,1-.2,1.5-.32l.5-.13.54-.13.62-.18.36-.1c.37-.11.75-.23,1.12-.36l.39-.13.58-.2.29-.11c.46-.17.93-.35,1.39-.55l.36-.15.36-.16.45-.2.58-.27.57-.28.3-.16.45-.23c.3-.16.59-.31.88-.48l.58-.33.57-.34.51-.32.06,0a2.2,2.2,0,0,0,.32-.21l.05,0,.44-.28.58-.41.08-.05.45-.32.61-.45c.72-.55,1.43-1.12,2.11-1.72l.59-.53.62-.57.56-.55.4-.41,0,0,.24-.24.07-.07.41-.45q.63-.66,1.2-1.35l.38-.47c.12-.15.24-.29.35-.44s.25-.31.37-.47l.13-.17.3-.4c.39-.54.76-1.07,1.13-1.63.24-.38.49-.76.72-1.15l.12-.19.12-.2.6-1.07.22-.4a.93.93,0,0,1,.05-.1c.08-.16.17-.31.25-.48a.93.93,0,0,1,0-.1l.24-.5a.05.05,0,0,0,0,0c.06-.11.11-.23.17-.34s.22-.47.32-.71.21-.46.3-.69.19-.44.28-.67v0l.27-.71c0-.11.09-.22.13-.33l.21-.59.12-.37c.07-.19.13-.38.19-.58s.18-.56.26-.84.13-.45.19-.68h0c0-.09,0-.18.08-.27.11-.43.22-.87.32-1.31l.09-.44c.06-.24.11-.49.15-.73l.12-.63v0c0-.2.07-.41.1-.62l.09-.59c0-.28.08-.57.11-.86a1.1,1.1,0,0,0,0-.18c0-.21.05-.43.07-.64s0-.31,0-.47,0-.31,0-.46c0-.54.06-1.09.08-1.64v-.31c0-.26,0-.51,0-.77S198.41,229.3,198.4,229Zm-39,38.64a39.09,39.09,0,0,1-5.23-.53,25.08,25.08,0,0,0,5.23.55h0Zm-6.8-.92-.74-.22-.79-.26-1-.38-.67-.28-.31-.14-.47-.22-.77-.38-.41-.22-.25-.14c-.61-.34-1.22-.72-1.8-1.11l-.27-.18,0,0-.29-.2-.35-.26c-.26-.2-.52-.39-.77-.6s-.24-.2-.36-.3c-.27-.22-.53-.45-.79-.68l-.76-.72,0,0-.41-.41-.4-.43c-.11-.11-.21-.23-.31-.35l-.22-.24c-.1-.12-.21-.24-.31-.37l-.36-.45c-.31-.39-.62-.8-.91-1.22l-.16-.24-.33-.5c-.11-.17-.22-.34-.32-.51a4.25,4.25,0,0,1-.27-.46,1,1,0,0,1-.1-.17c-.06-.1-.12-.2-.17-.3l-.06-.1-.31-.59c-.09-.18-.19-.37-.28-.56l-.06-.13v0h0c-.08-.16-.15-.31-.22-.48a2.71,2.71,0,0,1-.13-.3c-.1-.22-.2-.45-.29-.68l-.15-.39-.09-.25-.09-.24-.18-.53c0-.12-.08-.23-.11-.35l-.18-.61c0-.16-.09-.31-.13-.46s-.08-.31-.11-.46c-.16-.62-.28-1.25-.38-1.88,0-.16-.06-.32-.08-.48l-.06-.47a5,5,0,0,1-.06-.54,1.73,1.73,0,0,1,0-.32l0-.32c0-.21,0-.42,0-.64s0-.28,0-.41c0-.29,0-.59,0-.88a24.84,24.84,0,0,1,.37-4.34l-11.47-11.36h0l-.33-.34c-.1,1.07-.14,2.16-.14,3.25,0,.25,0,.5,0,.75v.22h0c0,.25,0,.51,0,.77,0,.46,0,.94.09,1.4,0,.18,0,.36,0,.54s0,.24,0,.36,0,.34.06.5,0,.41.08.62.06.49.1.73l0,.19.09.51a1.12,1.12,0,0,0,0,.21,2.56,2.56,0,0,0,.05.27c0,.18.07.36.1.53a1.77,1.77,0,0,1,0,.2l.12.54c0,.15.07.31.11.46q.14.59.3,1.17c0,.1.05.2.08.3s0,.2.09.3.1.37.16.55.09.28.13.42l.18.53.3.87c.12.33.24.66.38,1l.12.32q.25.62.54,1.23l.12.28c.21.46.43.92.66,1.37.14.27.28.54.43.81s.29.53.44.79.31.53.46.79.31.51.48.77.32.51.49.76l.26.37c.08.13.17.25.26.37s.26.37.4.55.23.32.35.47a.83.83,0,0,0,.11.15c.11.16.24.31.36.46l.42.53c.77.93,1.57,1.83,2.42,2.68l.3.3.43.42.45.42.45.41.26.23.26.23.17.14.49.42.85.67.36.28.45.34.32.23.29.21.3.21.18.12.55.36.47.31.66.41.59.35.34.2.47.26.48.26.44.23c.42.22.84.43,1.27.62l.62.29.62.27.41.17q1.07.43,2.16.81l.74.24.63.2.47.14.48.13.21.05h0c1,.28,2.11.51,3.19.7C153.61,267,153.08,266.88,152.57,266.74Z" transform="translate(-65.42 -191.58)"/><path class="cls-4" d="M198.41,229.85c0,.26,0,.51,0,.77v.31c0,.55,0,1.1-.08,1.64,0,.15,0,.31,0,.46s0,.31,0,.47,0,.43-.07.64a1.1,1.1,0,0,1,0,.18c0,.29-.07.58-.11.86l-.09.59c0,.21-.06.42-.1.62v0l-.12.63c0,.24-.09.49-.15.73l-.09.44c-.1.44-.21.88-.32,1.31,0,.09,0,.18-.08.27h0c-.06.23-.12.46-.19.68s-.17.56-.26.84-.12.39-.19.58l-.12.37-.21.59c0,.11-.08.22-.13.33l-.27.71v0c-.09.23-.18.45-.28.67s-.19.46-.3.69-.21.48-.32.71-.11.23-.17.34a.05.05,0,0,1,0,0l-.24.5a.93.93,0,0,0,0,.1c-.08.17-.17.32-.25.48a.93.93,0,0,0-.05.1l-.22.4-.6,1.07-.12.2-.12.19c-.23.39-.48.77-.72,1.15-.37.56-.74,1.09-1.13,1.63l-.3.4-.13.17c-.12.16-.24.32-.37.47s-.23.29-.35.44l-.38.47q-.57.69-1.2,1.35l-.41.45-.07.07-.24.24,0,0-.4.41-.56.55-.62.57-.59.53c-.68.6-1.39,1.17-2.11,1.72l-.61.45-.45.32-.08.05-.58.41-.44.28-.05,0a2.2,2.2,0,0,1-.32.21l-.06,0-.51.32-.57.34-.58.33c-.29.17-.58.32-.88.48l-.45.23-.3.16-.57.28-.58.27-.45.2-.36.16-.36.15c-.46.2-.93.38-1.39.55l-.29.11-.58.2-.39.13c-.37.13-.75.25-1.12.36l-.36.1-.62.18-.54.13-.5.13c-.5.12-1,.22-1.5.32l-.32.06-1.46.25-.31,0-.51.07h-.09l-1,.11c-1.18.11-2.37.17-3.58.17H160a23.62,23.62,0,0,0,3.88-.41c.68-.12,1.34-.27,2-.45a25.05,25.05,0,0,0,18.3-21.08,26.16,26.16,0,0,0,.19-3.09c0-.79,0-1.58-.11-2.36l-.06-.58c-.05-.38-.1-.76-.17-1.14,0-.19-.06-.38-.1-.57s0-.26-.07-.38,0-.13,0-.2,0-.13-.05-.2-.05-.25-.08-.37-.09-.36-.13-.54,0-.18-.08-.27,0-.17-.07-.26c-.07-.24-.14-.48-.22-.72a1.8,1.8,0,0,0-.09-.28c-.17-.52-.36-1-.57-1.55l-.21-.51-.21-.47c-.07-.16-.15-.33-.23-.49l-.11-.22c-.07-.16-.15-.31-.23-.46s-.23-.44-.36-.66l-.27-.47-.17-.28c-.14-.24-.29-.48-.45-.71l-.18-.28-.43-.62-.22-.3-.23-.3-.48-.62-.33-.39-.19-.22-.2-.22c0-.07-.11-.13-.17-.2l-.26-.27-.21-.22-.05-.06a.23.23,0,0,0-.07-.07l-.18-.18c-.11-.12-.23-.24-.35-.35s-.47-.45-.72-.67-.24-.22-.37-.32l-.37-.32-.39-.31-.39-.3-.79-.58-.41-.28-.44-.3-.32-.19c-.16-.11-.33-.21-.49-.3l-.43-.25-.21-.12-.21-.11-.21-.12-.95-.47-.5-.23-.29-.12-.29-.13-.29-.12-.19-.07c-.31-.13-.62-.24-.94-.35s-.35-.12-.53-.18l-.54-.17-.37-.1-.49-.13-.5-.13-.66-.14-.33-.07c-.33-.07-.67-.13-1-.18l-.66-.09q-.45-.06-.9-.09l-.29,0-.48,0c-.48,0-1,0-1.45,0h-.57l-.38,0h-.33l-.54,0-.34,0-.51.05-.33,0-.3,0-.48.06c-.2,0-.41.06-.61.11a25,25,0,0,0-20.64,24.64c0,.29,0,.59,0,.88,0,.14,0,.28,0,.41s0,.43,0,.64l0,.32a1.73,1.73,0,0,0,0,.32,5,5,0,0,0,.06.54c0,.16,0,.31.06.47s0,.32.08.48c.1.63.22,1.26.38,1.88,0,.15.07.3.11.46s.08.3.13.46.12.41.18.61.07.23.11.35l.18.53.09.24.09.25.15.39c.09.23.19.46.29.68a2.71,2.71,0,0,0,.13.3c.07.17.14.32.22.48h0v0l.06.13c.09.19.19.38.28.56l.31.59.06.1c.05.1.11.2.17.3a1,1,0,0,0,.1.17,4.25,4.25,0,0,0,.27.46c.1.17.21.34.32.51l.33.5.16.24c.29.42.6.83.91,1.22l.36.45c.1.13.21.25.31.37l.22.24c.1.12.2.24.31.35l.4.43.41.41,0,0,.76.72c.26.23.52.46.79.68l.36.3c.25.21.51.4.77.6l.35.26.29.2,0,0,.27.18c.58.39,1.19.77,1.8,1.11l.25.14.41.22.77.38.47.22.31.14.67.28,1,.38.79.26.74.22c.51.14,1,.28,1.57.39-1.08-.19-2.15-.42-3.19-.7h0l-.21-.05-.48-.13-.47-.14-.63-.2-.74-.24q-1.09-.37-2.16-.81l-.41-.17-.62-.27-.62-.29c-.43-.19-.85-.4-1.27-.62l-.44-.23-.48-.26-.47-.26-.34-.2-.59-.35-.66-.41-.47-.31-.55-.36-.18-.12-.3-.21-.29-.21-.32-.23-.45-.34-.36-.28-.85-.67-.49-.42-.17-.14-.26-.23-.26-.23-.45-.41-.45-.42-.43-.42-.3-.3c-.85-.85-1.65-1.75-2.42-2.68l-.42-.53a5.19,5.19,0,0,1-.36-.46.83.83,0,0,1-.11-.15c-.12-.15-.24-.31-.35-.47s-.27-.36-.4-.55-.18-.24-.26-.37l-.26-.37c-.17-.25-.33-.5-.49-.76s-.33-.51-.48-.77-.31-.52-.46-.79-.3-.52-.44-.79-.29-.54-.43-.81c-.23-.45-.45-.91-.66-1.37l-.12-.28q-.28-.61-.54-1.23l-.12-.32c-.14-.33-.26-.66-.38-1l-.3-.87-.18-.53c0-.14-.09-.27-.13-.42s-.11-.36-.16-.55-.06-.2-.09-.3-.06-.2-.08-.3q-.16-.59-.3-1.17c0-.15-.08-.31-.11-.46l-.12-.54a1.77,1.77,0,0,0,0-.2c0-.17-.07-.35-.1-.53a2.56,2.56,0,0,1-.05-.27,1.12,1.12,0,0,1,0-.21l-.09-.51,0-.19c0-.24-.07-.49-.1-.73s-.06-.41-.08-.62,0-.34-.06-.5,0-.24,0-.36,0-.36,0-.54c0-.46-.07-.94-.09-1.4,0-.26,0-.52,0-.77h0v-.22c0-.25,0-.5,0-.75,0-1.09,0-2.18.14-3.25,0-.35.06-.7.1-1l.09-.74.09-.64s0-.07,0-.1a3.06,3.06,0,0,1,.05-.32c.11-.73.25-1.45.41-2.16,0-.15.07-.3.11-.45v0c0-.22.1-.44.16-.67s.15-.57.23-.85.13-.45.2-.68.07-.24.11-.37l0-.06c0-.13.08-.27.13-.4a0,0,0,0,1,0,0,2,2,0,0,1,.08-.22h0a2.67,2.67,0,0,1,.09-.26c.05-.16.1-.32.16-.47s.18-.51.28-.76a.14.14,0,0,0,0-.06l.33-.81c.1-.26.21-.51.32-.75s.15-.36.24-.54l.21-.46c.19-.41.4-.82.61-1.22.1-.2.2-.4.31-.59l.29-.52c.24-.45.5-.88.76-1.3a1,1,0,0,1,.11-.17c.11-.19.23-.38.35-.57l.48-.72c.16-.23.32-.47.49-.7s.33-.46.5-.69l.53-.69c.35-.44.71-.89,1.08-1.32l.57-.64c.38-.43.77-.85,1.17-1.25.21-.2.41-.41.61-.61l.62-.58q.63-.58,1.29-1.14c.21-.19.43-.37.66-.55l.64-.51.41-.31.41-.31c.37-.27.75-.54,1.13-.79.16-.12.33-.22.49-.33s.28-.19.43-.27.46-.3.7-.44.76-.46,1.15-.67l.68-.37.48-.25c.47-.25,1-.48,1.44-.7l.25-.12c.37-.17.74-.33,1.12-.48.1,0,.19-.09.29-.12l.82-.32c.22-.08.44-.17.67-.24l.38-.14.6-.2.58-.18h0l.41-.12c.24-.08.49-.14.73-.21.47-.13,1-.25,1.44-.36h0l.34-.07.44-.1.45-.09.44-.08.41-.07c.18,0,.37-.07.56-.09l.32,0,.59-.08.33,0,.66-.08.47,0,.55-.05.54,0h.22l.93,0h1.22c1.24,0,2.47.06,3.68.18.54,0,1.08.11,1.61.19l.86.13.6.1h0l.45.08c.44.08.88.18,1.31.28l.29.07.21.05h0l.33.08.4.11,1.13.32.39.12.39.12h0l.07,0,.73.25.8.29.53.2.89.37c.36.15.72.3,1.07.47l.39.18.76.37c.3.15.61.31.91.48l.34.18.35.19.38.22.09.05.33.2.07,0,.42.26c.21.12.41.25.61.38h0l.51.34c.15.1.3.19.44.3l.12.08.25.17c.13.09.26.18.38.28l.51.37c.3.23.59.45.88.69.13.09.25.2.37.3l.13.1.37.31.42.36.33.29c.31.28.62.56.91.84l.4.39a1.89,1.89,0,0,1,.2.2l.2.19h0a3.83,3.83,0,0,1,.28.29l.28.29.29.3.19.21.2.22.48.54.21.25c.14.15.26.31.39.47s.46.56.68.84l.26.34.29.39.18.24h0a.43.43,0,0,1,0,.07c.19.25.37.5.54.76v0l.46.68.34.53.4.65c.1.16.19.32.28.48l.18.31c.3.52.59,1,.86,1.6l.33.65.24.51.12.26c0,.07.07.14.1.22s0,0,0,0h0l.23.53c.07.14.13.29.19.43s.13.32.19.47c.14.36.28.72.41,1.08l.15.41.15.46c.09.27.18.54.26.8l.12.4c.12.37.22.75.32,1.13l.09.33c.06.22.11.43.16.64l.06.27c0,.12.06.25.08.38s.06.25.08.37.08.35.11.53l.06.34c.09.45.16.91.23,1.38,0,.11,0,.23,0,.35v0c0,.22.07.45.09.68a.49.49,0,0,1,0,.12c0,.22.05.44.07.65s0,.57.07.86,0,.35,0,.53l0,.59c0,.28,0,.55,0,.83S198.41,229.57,198.41,229.85Z" transform="translate(-65.42 -191.58)"/><path class="cls-5" d="M184.22,245.73a26.16,26.16,0,0,0,.19-3.09,25,25,0,0,0-21.26-24.74l-.66-.09c-.3-.05-.6-.08-.9-.1l-.29,0-.48,0c-.48,0-1,0-1.45,0h-1.28l-.54,0-.34,0-.51.05-.33,0-.3,0-.48.07c-.2,0-.41.06-.61.1a25,25,0,0,0-20.27,20.31,24.64,24.64,0,0,0-.38,4.33,25,25,0,0,0,19.81,24.49,37.84,37.84,0,0,1-31.38-37.28c0-1.09,0-2.18.15-3.25a32.13,32.13,0,0,1,62.43,10.7A32.54,32.54,0,0,1,184.22,245.73Z" transform="translate(-65.42 -191.58)"/><path class="cls-6" d="M192.94,280.54a50.23,50.23,0,0,0-20.64-86.66h0a49.6,49.6,0,0,0-5.61-1.07h-.11c-.76-.1-1.52-.18-2.29-.25-1.22-.1-2.45-.16-3.69-.17h-1.21c-1.3,0-2.59.08-3.86.19s-2.27.24-3.39.42h0a50.23,50.23,0,0,0-25.64,87s10,10.1,31,12.55l.49.06,1.17.12.26,0h0c.22,0,.43,0,.65,0a25,25,0,0,1,22.47,14.44l0,.11a24.34,24.34,0,0,1,1.9,6s0,0,0,0a25.33,25.33,0,0,1,.38,4.39,24.81,24.81,0,0,1-14.21,22.44l-.31.15h0l-.5.22-.38.16-.49.19-.38.15h0l0,0-.5.17-.47.16-.48.15-.5.14-.27.07h0l-.25.07-.52.12-.53.11-.54.11-.61.1-.48.07-.3,0-.34,0-.5.05-.34,0-.55,0H161l-.38,0h-1.22v25.6c.84,0,1.68,0,2.51-.07a50.23,50.23,0,0,0,31.06-87.54ZM136.77,253s0,0,0-.05A24.82,24.82,0,0,1,155,218.33l.61-.1.48-.07.3,0,.33,0,.51-.05.34,0,.54,0h.33l.38,0h.73c.43,0,.86,0,1.29,0l.48,0,.29,0,.9.1.66.09A24.82,24.82,0,1,1,136.77,253Z" transform="translate(-65.42 -191.58)"/><path class="cls-7" d="M196.62,330.32v.16c0,1-.05,2.07-.14,3.09,0,.1,0,.21,0,.31-1.77,19-18.33,34-37.76,34.26V342.55h1.9l.38,0h.32l.55,0,.34,0,.5-.05.34,0,.3,0,.48-.07.61-.1.54-.11.53-.11.52-.12.54-.14.5-.14.48-.15.47-.16.5-.17,0,0h0a2.5,2.5,0,0,0,.38-.15l.49-.19.38-.16A24.91,24.91,0,0,0,184.48,322a42.56,42.56,0,0,0,.35-4.37c0-.06,0,.06,0,0-.69-11.36-7.47-19.47-15.2-22.83a29.49,29.49,0,0,0-4.4-1.41A37.53,37.53,0,0,1,196.62,330.32Z" transform="translate(-65.42 -191.58)"/><path class="cls-8" d="M198.75,230.19a37.83,37.83,0,0,1-34.25,37.66c-1.18.11-2.37.16-3.57.16h-.56a24.89,24.89,0,0,0,3.89-.41c.67-.12,1.34-.28,2-.45a25.05,25.05,0,0,0,18.29-21.08,24.19,24.19,0,0,0,.19-3.09,25,25,0,0,0-21.26-24.75l-.65-.09-.91-.1-.29,0-.48,0c-.47,0-1,0-1.44,0h-.58l-.37,0h-.33l-.55,0-.34,0-.5.05-.34,0-.29,0-.48.06-.61.1A25.07,25.07,0,0,0,135,238.64a25.85,25.85,0,0,0-.37,4.34,25.05,25.05,0,0,0,19.8,24.49,37.85,37.85,0,0,1-31.37-37.28c0-1.09.05-2.18.14-3.25a37.82,37.82,0,0,1,37.46-34.57h.23c1.24,0,2.46.06,3.68.17.54.05,1.07.12,1.61.2A37.81,37.81,0,0,1,198.75,230.19Z" transform="translate(-65.42 -191.58)"/><path class="cls-9" d="M184.55,246.07a24.19,24.19,0,0,0,.19-3.09,25,25,0,0,0-21.26-24.75l-.65-.09-.91-.1-.29,0-.48,0c-.47,0-1,0-1.44,0h-.58l-.37,0h-.33l-.55,0-.34,0-.5.05-.34,0-.29,0-.48.06-.61.1A25.07,25.07,0,0,0,135,238.64a25.85,25.85,0,0,0-.37,4.34,25.05,25.05,0,0,0,19.8,24.49,37.85,37.85,0,0,1-31.37-37.28v0a15.06,15.06,0,0,1,1.57-6.62,32.13,32.13,0,0,1,59.88,22.53Z" transform="translate(-65.42 -191.58)"/><path class="cls-10" d="M147.51,342.16a87.74,87.74,0,0,1-51.39-23,87.71,87.71,0,0,1-10.6-41.93,74.54,74.54,0,0,1,4.27-24.72c.15-.43.3-.85.46-1.28,0,.21,0,.41,0,.62q-.33,3.75-.33,7.58a88.1,88.1,0,0,0,57.64,82.71Z" transform="translate(-65.42 -191.58)"/><path class="cls-11" d="M122.45,209.25A50,50,0,0,0,112,227.87a88.69,88.69,0,0,0-18.81,19.48c-1,1.48-2,3-3,4.52,0-.21,0-.41,0-.62C96.4,234.62,108.07,220.09,122.45,209.25Z" transform="translate(-65.42 -191.58)"/><path class="cls-12" d="M239.07,231.54c0-21.2,16.51-36.9,39.05-36.9s39.05,15.59,39.05,36.9-16.62,36.91-39.05,36.91S239.07,252.75,239.07,231.54Zm61.37,0c0-13.56-9.58-22.83-22.32-22.83s-22.33,9.27-22.33,22.83,9.58,22.84,22.33,22.84S300.44,245.1,300.44,231.54Z" transform="translate(-65.42 -191.58)"/><path class="cls-12" d="M391.48,221.76c0,15.9-11.93,25.79-31,25.79H346.11v19.68H329.59V195.86h30.9C379.55,195.86,391.48,205.75,391.48,221.76Zm-16.72,0c0-7.85-5.1-12.44-15.19-12.44H346.11v24.77h13.46C369.66,234.09,374.76,229.5,374.76,221.76Z" transform="translate(-65.42 -191.58)"/><path class="cls-12" d="M399.73,231.54c0-21.51,16.51-36.9,38.74-36.9,12.34,0,22.63,4.48,29.36,12.64l-10.6,9.79a23,23,0,0,0-17.94-8.36c-13.36,0-22.84,9.38-22.84,22.83s9.48,22.84,22.84,22.84a22.73,22.73,0,0,0,17.94-8.46l10.6,9.79c-6.73,8.25-17,12.74-29.46,12.74C416.24,268.45,399.73,253.06,399.73,231.54Z" transform="translate(-65.42 -191.58)"/><path class="cls-12" d="M471.8,239.8c0-16.52,12.74-28.24,30.18-28.24s30.08,11.72,30.08,28.24S519.41,268,502,268,471.8,256.32,471.8,239.8Zm44.15,0c0-9.48-6-15.19-14-15.19s-14.07,5.71-14.07,15.19S494,255,502,255,516,249.28,516,239.8Z" transform="translate(-65.42 -191.58)"/><path class="cls-12" d="M598.72,235.83v31.4h-15.9v-29c0-8.87-4.08-13-11.11-13-7.65,0-13.15,4.69-13.15,14.79v27.12H542.65V212.38h15.19v6.42c4.28-4.69,10.71-7.24,18.15-7.24C588.94,211.56,598.72,219.11,598.72,235.83Z" transform="translate(-65.42 -191.58)"/><path class="cls-12" d="M607.79,262.13l5.3-11.42a37.56,37.56,0,0,0,19.07,5.3c7.34,0,10.09-1.93,10.09-5,0-9-33.14.2-33.14-21.72,0-10.4,9.39-17.74,25.39-17.74,7.55,0,15.91,1.73,21.11,4.79l-5.31,11.32a31.46,31.46,0,0,0-15.8-4.08c-7.13,0-10.19,2.24-10.19,5.1,0,9.38,33.13.3,33.13,21.92,0,10.19-9.48,17.43-25.89,17.43C622.27,268,612.89,265.49,607.79,262.13Z" transform="translate(-65.42 -191.58)"/><path class="cls-12" d="M722.48,212.38v54.85H707.39V260.7a22.2,22.2,0,0,1-17,7.34c-13.77,0-23.45-7.74-23.45-24.67v-31h15.9V241c0,9.17,4.08,13.25,11.11,13.25,7.34,0,12.65-4.69,12.65-14.78V212.38Z" transform="translate(-65.42 -191.58)"/><path class="cls-12" d="M737.26,249.08v-57.5h15.9v56.58c0,4.69,2.45,7.24,6.83,7.24a10.41,10.41,0,0,0,4.49-1l.71,12.34a26.07,26.07,0,0,1-8.26,1.32C744.6,268,737.26,261.31,737.26,249.08Z" transform="translate(-65.42 -191.58)"/><path class="cls-12" d="M806.07,264.58c-3.26,2.34-8.05,3.46-12.85,3.46-13.05,0-20.49-6.62-20.49-19.67V200.24h15.91V213.6H802.2v12.23H788.64v22.33c0,4.69,2.44,7.24,6.73,7.24a11.21,11.21,0,0,0,6.52-2Z" transform="translate(-65.42 -191.58)"/><line class="cls-13" x1="173.64" y1="101.77" x2="736.93" y2="101.77"/><path class="cls-12" d="M241.81,341.46c0-10.16,7.72-17.68,18.07-17.68,4.93,0,9.37,1.6,12.4,4.83l-1.59,1.65A14.59,14.59,0,0,0,260,326.12c-8.91,0-15.63,6.58-15.63,15.34S251.07,356.8,260,356.8a14.63,14.63,0,0,0,10.71-4.18l1.59,1.64c-3,3.24-7.47,4.88-12.4,4.88C249.53,359.14,241.81,351.62,241.81,341.46Z" transform="translate(-65.42 -191.58)"/><path class="cls-12" d="M303.26,343.7v15.19h-2.49v-15c0-5.87-3.14-9-8.42-9-6.12,0-9.86,3.93-9.86,10.11v13.84H280V321.94h2.49v16.39c1.8-3.54,5.38-5.63,10.21-5.63C299,332.7,303.26,336.43,303.26,343.7Z" transform="translate(-65.42 -191.58)"/><path class="cls-12" d="M325.82,332.7v2.44c-.2,0-.4-.05-.6-.05-5.77,0-9.21,3.83-9.21,10.26v13.54h-2.49v-26h2.39v5.67C317.51,334.79,320.94,332.7,325.82,332.7Z" transform="translate(-65.42 -191.58)"/><path class="cls-12" d="M331.9,324.58a2,2,0,0,1,2-2,2,2,0,1,1-2,2Zm.8,8.32h2.48v26H332.7Z" transform="translate(-65.42 -191.58)"/><path class="cls-12" d="M341.86,355.76l1.14-2a15.11,15.11,0,0,0,9.37,3.14c5.47,0,7.67-1.94,7.67-4.88,0-7.57-17.23-2-17.23-12.2,0-3.93,3.28-7.12,9.85-7.12,3.29,0,6.88,1,8.92,2.54l-1.15,2a13.41,13.41,0,0,0-7.81-2.34c-5.08,0-7.33,2.09-7.33,4.88,0,7.82,17.24,2.29,17.24,12.2,0,4.23-3.64,7.12-10.26,7.12C348,359.09,343.9,357.65,341.86,355.76Z" transform="translate(-65.42 -191.58)"/><path class="cls-12" d="M381.6,357.25a7.93,7.93,0,0,1-5.33,1.84c-4.58,0-7.07-2.69-7.07-7.07v-24.8h2.49v5.68H380V335h-8.26v16.73c0,3.34,1.64,5.18,4.83,5.18a6,6,0,0,0,4-1.44Z" transform="translate(-65.42 -191.58)"/><path class="cls-12" d="M384.74,345.89c0-7.71,5.53-13.19,13-13.19s13,5.48,13,13.19-5.53,13.2-13,13.2S384.74,353.61,384.74,345.89Zm23.45,0c0-6.52-4.48-10.95-10.46-10.95s-10.45,4.43-10.45,10.95,4.48,11,10.45,11S408.19,352.42,408.19,345.89Z" transform="translate(-65.42 -191.58)"/><path class="cls-12" d="M444.35,345.89c0,7.82-5.53,13.2-12.85,13.2A11.65,11.65,0,0,1,420.94,353v15.58h-2.49V332.9h2.39V339a11.62,11.62,0,0,1,10.66-6.32C438.82,332.7,444.35,338.13,444.35,345.89Zm-2.49,0c0-6.52-4.53-10.95-10.51-10.95s-10.46,4.43-10.46,10.95,4.49,11,10.46,11S441.86,352.42,441.86,345.89Z" transform="translate(-65.42 -191.58)"/><path class="cls-12" d="M475.33,343.7v15.19h-2.5v-15c0-5.87-3.13-9-8.41-9-6.13,0-9.86,3.93-9.86,10.11v13.84h-2.49V321.94h2.49v16.39c1.79-3.54,5.38-5.63,10.21-5.63C471.09,332.7,475.33,336.43,475.33,343.7Z" transform="translate(-65.42 -191.58)"/><path class="cls-12" d="M504.61,353.21l1.44,1.65a12.36,12.36,0,0,1-9.81,4.23c-7.87,0-13.44-5.48-13.44-13.2s5.28-13.19,12.65-13.19c6.92,0,11.85,5.18,12.2,12.1l-22,4.28c1.25,4.78,5.28,7.77,10.61,7.77A10.39,10.39,0,0,0,504.61,353.21Zm-19.37-7.51c0,.49.05,1,.1,1.54l19.82-3.88a9.69,9.69,0,0,0-9.71-8.47C489.47,334.89,485.24,339.37,485.24,345.7Z" transform="translate(-65.42 -191.58)"/><path class="cls-12" d="M525.42,354.41l1.15-1.89c2.39,2.49,6.82,4.38,11.5,4.38,7,0,10.06-3,10.06-6.82,0-10.46-21.76-4.19-21.76-17,0-4.93,3.79-9.27,12.35-9.27a18.74,18.74,0,0,1,10.51,3.14l-1,2a17.24,17.24,0,0,0-9.56-2.94c-6.77,0-9.81,3.14-9.81,7,0,10.45,21.76,4.28,21.76,16.93,0,4.93-3.93,9.21-12.55,9.21C532.94,359.14,528,357.2,525.42,354.41Z" transform="translate(-65.42 -191.58)"/><path class="cls-12" d="M581.6,332.9v26h-2.44v-6.12a11.54,11.54,0,0,1-10.66,6.32c-7.32,0-12.84-5.43-12.84-13.2s5.52-13.19,12.84-13.19a11.66,11.66,0,0,1,10.61,6.22v-6Zm-2.49,13c0-6.52-4.48-10.95-10.46-10.95s-10.45,4.43-10.45,10.95,4.48,11,10.45,11S579.11,352.42,579.11,345.89Z" transform="translate(-65.42 -191.58)"/><path class="cls-12" d="M592.11,352.07V321.94h2.49v29.83c0,3.34,1.49,5.18,4.58,5.18a6.63,6.63,0,0,0,2.49-.5l.2,2.09a8.57,8.57,0,0,1-3,.55C594.45,359.09,592.11,356.4,592.11,352.07Z" transform="translate(-65.42 -191.58)"/><path class="cls-12" d="M607,352.07V321.94h2.49v29.83c0,3.34,1.49,5.18,4.58,5.18a6.63,6.63,0,0,0,2.49-.5l.2,2.09a8.57,8.57,0,0,1-3,.55C609.29,359.09,607,356.4,607,352.07Z" transform="translate(-65.42 -191.58)"/><path class="cls-12" d="M621,324.58a2,2,0,0,1,2-2,2,2,0,1,1-2,2Zm.8,8.32h2.49v26h-2.49Z" transform="translate(-65.42 -191.58)"/><path class="cls-12" d="M632,345.89c0-7.71,5.53-13.19,13-13.19s13,5.48,13,13.19-5.52,13.2-13,13.2S632,353.61,632,345.89Zm23.45,0c0-6.52-4.48-10.95-10.45-10.95s-10.46,4.43-10.46,10.95,4.48,11,10.46,11S655.4,352.42,655.4,345.89Z" transform="translate(-65.42 -191.58)"/><path class="cls-12" d="M677.76,357.25a7.88,7.88,0,0,1-5.32,1.84c-4.58,0-7.07-2.69-7.07-7.07v-24.8h2.49v5.68h8.26V335h-8.26v16.73c0,3.34,1.64,5.18,4.83,5.18a6,6,0,0,0,4-1.44Z" transform="translate(-65.42 -191.58)"/></svg>