<svg height="480pt" viewBox="-44 0 480 480" width="480pt" xmlns="http://www.w3.org/2000/svg" xmlns:xlink="http://www.w3.org/1999/xlink"><linearGradient id="lg1"><stop offset="0" stop-color="#fc5c7d"/><stop offset=".129" stop-color="#f35e85"/><stop offset=".343" stop-color="#d9659b"/><stop offset=".616" stop-color="#b070bf"/><stop offset=".934" stop-color="#777ff0"/><stop offset="1" stop-color="#6a82fb"/></linearGradient><linearGradient id="linear0" gradientUnits="userSpaceOnUse" x1="212" x2="212" xlink:href="#lg1" y1="-42.328" y2="502.584"/><linearGradient id="linear1" gradientUnits="userSpaceOnUse" x1="112" x2="112" xlink:href="#lg1" y1="-42.328" y2="502.584"/><linearGradient id="linear2" gradientUnits="userSpaceOnUse" x1="104" x2="104" xlink:href="#lg1" y1="-42.328" y2="502.584"/><linearGradient id="linear3" gradientUnits="userSpaceOnUse" x1="216" x2="216" xlink:href="#lg1" y1="-42.328" y2="502.584"/><linearGradient id="linear4" gradientUnits="userSpaceOnUse" x1="240" x2="240" xlink:href="#lg1" y1="-42.328" y2="502.584"/><linearGradient id="linear5" gradientUnits="userSpaceOnUse" x1="160" x2="160" xlink:href="#lg1" y1="-42.328" y2="502.584"/><linearGradient id="linear6" gradientUnits="userSpaceOnUse" x1="304" x2="304" xlink:href="#lg1" y1="-42.328" y2="502.584"/><linearGradient id="linear7" gradientUnits="userSpaceOnUse" x1="72" x2="72" xlink:href="#lg1" y1="-42.328" y2="502.584"/><linearGradient id="linear9" gradientUnits="userSpaceOnUse" x1="80" x2="80" xlink:href="#lg1" y1="-42.328" y2="502.584"/><linearGradient id="linear10" gradientUnits="userSpaceOnUse" x1="272" x2="272" xlink:href="#lg1" y1="-42.328" y2="502.584"/><linearGradient id="linear11" gradientUnits="userSpaceOnUse" x1="176" x2="176" xlink:href="#lg1" y1="-42.328" y2="502.584"/><linearGradient id="linear13" gradientUnits="userSpaceOnUse" x1="8" x2="8" xlink:href="#lg1" y1="-42.328" y2="502.584"/><linearGradient id="linear15" gradientUnits="userSpaceOnUse" x1="305.672" x2="305.672" xlink:href="#lg1" y1="-42.328" y2="502.584"/><path d="m32 8v444c0 15.464844 12.535156 28 28 28s28-12.535156 28-28v-60c0-6.628906 5.371094-12 12-12s12 5.371094 12 12v24c0 15.464844 12.535156 28 28 28s28-12.535156 28-28v-44c0-6.628906 5.371094-12 12-12h80c6.628906 0 12 5.371094 12 12v40c0 15.464844 12.535156 28 28 28s28-12.535156 28-28v-40c0-6.628906 5.371094-12 12-12h44c4.417969 0 8-3.582031 8-8-.214844-194.316406-157.683594-351.785156-352-352-4.417969 0-8 3.582031-8 8zm280 364v40c0 6.628906-5.371094 12-12 12s-12-5.371094-12-12v-40c0-15.464844-12.535156-28-28-28h-80c-15.464844 0-28 12.535156-28 28v44c0 6.628906-5.371094 12-12 12s-12-5.371094-12-12v-24c0-15.464844-12.535156-28-28-28s-28 12.535156-28 28v60c0 6.628906-5.371094 12-12 12s-12-5.371094-12-12v-395.800781c157.246094 4.421875 283.613281 130.972656 287.808594 288.226562-13.648438 2.066407-23.753906 13.769531-23.808594 27.574219zm63.902344-28h-24.101563c-4.441406-165.910156-137.890625-299.359375-303.800781-303.800781v-24.101563c179.214844 4.460938 323.441406 148.6875 327.902344 327.902344zm0 0" fill="url(#linear0)"/><path d="m112 112c-17.671875 0-32 14.328125-32 32s14.328125 32 32 32v-16c-8.835938 0-16-7.164062-16-16s7.164062-16 16-16 16 7.164062 16 16h16c0-17.671875-14.328125-32-32-32zm0 0" fill="url(#linear1)"/><path d="m104 296c-8.835938 0-16-7.164062-16-16s7.164062-16 16-16v-16c-17.671875 0-32 14.328125-32 32s14.328125 32 32 32 32-14.328125 32-32h-16c0 8.835938-7.164062 16-16 16zm0 0" fill="url(#linear2)"/><path d="m248 184c0-17.671875-14.328125-32-32-32v16c8.835938 0 16 7.164062 16 16s-7.164062 16-16 16-16-7.164062-16-16h-16c0 17.671875 14.328125 32 32 32s32-14.328125 32-32zm0 0" fill="url(#linear3)"/><path d="m240 256c-17.671875 0-32 14.328125-32 32h16c0-8.835938 7.164062-16 16-16s16 7.164062 16 16-7.164062 16-16 16v16c17.671875 0 32-14.328125 32-32s-14.328125-32-32-32zm0 0" fill="url(#linear4)"/><path d="m152 320h16v16h-16zm0 0" fill="url(#linear5)"/><path d="m296 320h16v16h-16zm0 0" fill="url(#linear6)"/><path d="m64 328h16v16h-16zm0 0" fill="url(#linear7)"/><path d="m152 224h16v16h-16zm0 0" fill="url(#linear5)"/><path d="m72 200h16v16h-16zm0 0" fill="url(#linear9)"/><path d="m264 224h16v16h-16zm0 0" fill="url(#linear10)"/><path d="m168 112h16v16h-16zm0 0" fill="url(#linear11)"/><path d="m64 80h16v16h-16zm0 0" fill="url(#linear7)"/><path d="m0 200h16v200h-16zm0 0" fill="url(#linear13)"/><path d="m0 416h16v16h-16zm0 0" fill="url(#linear13)"/><path d="m376.6875 203.199219 14.625-6.464844c-33.796875-75.878906-91.09375-138.882813-163.433594-179.710937l-7.839844 13.953124c69.332032 39.125 124.25 99.503907 156.648438 172.222657zm0 0" fill="url(#linear15)"/></svg>