<svg height="512" viewBox="0 0 64 64" width="512" xmlns="http://www.w3.org/2000/svg"><g id="Line"><path d="m26 36.5a17.5 17.5 0 1 1 27.5 14.34v2.16h-7v-11.58a1 1 0 0 0 -2 0v11.58h-2v-11.58a1 1 0 0 0 -2 0v11.58h-7v-2.16a17.48 17.48 0 0 1 -7.5-14.34zm7.5 18.5v2h20v-2zm.1 4a5 5 0 0 0 4.9 4h10a5 5 0 0 0 4.9-4z" fill="#c4a2fc"/><g fill="#151a6a"><path d="m50 7h-3.5v-3a3 3 0 0 0 -3-3h-31.5a3 3 0 0 0 -3 3v27h-3a3 3 0 0 0 -3 3v8a3 3 0 0 0 3 3h3v3a3 3 0 0 0 3 3h31.5a3 3 0 0 0 3-3v-21h3.5a3 3 0 0 0 3-3v-14a3 3 0 0 0 -3-3zm-45 35v-8a1 1 0 0 1 1-1h14a1 1 0 0 1 1 1v8a1 1 0 0 1 -1 1h-14a1 1 0 0 1 -1-1zm39.5 6a1 1 0 0 1 -1 1h-31.5a1 1 0 0 1 -1-1v-3h9a3 3 0 0 0 3-3v-8a3 3 0 0 0 -3-3h-9v-27a1 1 0 0 1 1-1h31.5a1 1 0 0 1 1 1v3h-10.5a3 3 0 0 0 -3 3v14a3 3 0 0 0 3 3h10.5zm6.5-24a1 1 0 0 1 -1 1h-16a1 1 0 0 1 -1-1v-14a1 1 0 0 1 1-1h16a1 1 0 0 1 1 1zm-36-13a1 1 0 0 1 1-1h11a1 1 0 0 1 0 2h-11a1 1 0 0 1 -1-1zm0 4a1 1 0 0 1 1-1h11a1 1 0 0 1 0 2h-11a1 1 0 0 1 -1-1zm0 4a1 1 0 0 1 1-1h11a1 1 0 0 1 0 2h-11a1 1 0 0 1 -1-1zm12 5h-11a1 1 0 0 1 0-2h11a1 1 0 0 1 0 2zm20-9a1 1 0 0 1 -1 1h-8a1 1 0 0 1 0-2h8a1 1 0 0 1 1 1zm-3 4a1 1 0 0 1 -1 1h-5a1 1 0 0 1 0-2h5a1 1 0 0 1 1 1zm-36 17a1 1 0 0 1 1-1h8a1 1 0 0 1 0 2h-8a1 1 0 0 1 -1-1zm5 5h-4a1 1 0 0 1 0-2h4a1 1 0 0 1 0 2z"/><path d="m39.5 31h-12.5a1 1 0 0 0 -1 1v12a1 1 0 0 0 1 1h12.5a1 1 0 0 0 1-1v-12a1 1 0 0 0 -1-1zm-7.69 7-3.81 3.68v-7.36zm-2.3-5h7.49l-3.74 3.61zm3.74 6.39 3.75 3.61h-7.49zm1.44-1.39 3.81-3.68v7.36z"/></g></g></svg>