<svg height="512" viewBox="0 0 64 64" width="512" xmlns="http://www.w3.org/2000/svg"><g id="Line"><path d="m41 19.05a22 22 0 0 1 21 20.95h-6a16 16 0 0 0 -15-14.92zm-17 21a16 16 0 0 1 15-15v-6a22 22 0 0 0 -21 21zm25 0h5a14 14 0 0 0 -13-12.97v5a1 1 0 0 1 -2 0v-5a14 14 0 0 0 -13 13h5a1 1 0 0 1 0 2h-5a14 14 0 0 0 13 12.92v-5a1 1 0 0 1 2 0v5a14 14 0 0 0 13-13h-5a1 1 0 0 1 0-2zm-10 16.95a16 16 0 0 1 -14.92-15h-6a22 22 0 0 0 20.92 21zm17-15a16 16 0 0 1 -15 15v6a22 22 0 0 0 21-21z" fill="#c4a2fc"/><path d="m51 7a1 1 0 0 0 -1 1v6.49a3 3 0 0 1 -1.69 2.7l-2.31 1.12v-7.31a1 1 0 0 0 -.55-.89l-10.76-5.39 2-2a1 1 0 1 0 -1.42-1.42l-2.47 2.48-1.8-.89a9 9 0 0 0 -8 0l-1.78.89-2.51-2.49a1 1 0 0 0 -1.42 1.42l2 2-10.74 5.4a1 1 0 0 0 -.55.89v7.38l-2.34-1.17a3 3 0 0 1 -1.66-2.68v-6.53a1 1 0 0 0 -2 0v6.53a5 5 0 0 0 2.76 4.47l3.24 1.62v7.76l-3.24 1.62a5 5 0 0 0 -2.76 4.47v9.53a1 1 0 0 0 2 0v-9.53a3 3 0 0 1 1.66-2.68l2.34-1.17v5.44a9 9 0 0 0 5 8l13.58 6.84a1 1 0 0 0 .84 0c.23-.1 13.5-6.74 13.61-6.8a8.94 8.94 0 0 0 5-8v-5.41l2.31 1.12a3 3 0 0 1 1.66 2.7v9.49a1 1 0 0 0 2 0v-9.49a5 5 0 0 0 -2.82-4.51l-3.18-1.53v-7.94l3.18-1.53a5 5 0 0 0 2.82-4.51v-6.49a1 1 0 0 0 -1-1zm-27.13-2.32a7 7 0 0 1 6.26 0l10.64 5.32h-27.53zm-13.87 31.38v-24.06h16v36.38l-12.13-6.06a7 7 0 0 1 -3.87-6.26zm30.13 6.26-12.13 6.06v-36.38h16v24.06a7 7 0 0 1 -3.87 6.26z" fill="#151a6a"/></g></svg>