<svg height="512" viewBox="0 0 64 64" width="512" xmlns="http://www.w3.org/2000/svg"><g id="Line"><path d="m27 61h28v-26h-28zm11-6h-6a1 1 0 0 1 0-2h6a1 1 0 0 1 0 2zm6 0h-2a1 1 0 0 1 0-2h2a1 1 0 0 1 0 2zm6 0h-2a1 1 0 0 1 0-2h2a1 1 0 0 1 0 2zm0-6h-5a1 1 0 0 1 0-2h5a1 1 0 0 1 0 2zm-2-8h2a1 1 0 0 1 0 2h-2a1 1 0 0 1 0-2zm-9 0h5a1 1 0 0 1 0 2h-5a1 1 0 0 1 0-2zm-7 0h3a1 1 0 0 1 0 2h-3a1 1 0 0 1 0-2zm0 6h9a1 1 0 0 1 0 2h-9a1 1 0 0 1 0-2zm-7 14h-3a3 3 0 0 1 -3-3v-20a3 3 0 0 1 3-3h3zm38-23v20a3 3 0 0 1 -3 3h-3v-26h3a3 3 0 0 1 3 3z" fill="#c4a2fc"/><path d="m44 3h-36a7 7 0 0 0 -7 7v40a3 3 0 0 0 3 3h32a3 3 0 0 0 3-3v-21h9a3 3 0 0 0 3-3v-16a7 7 0 0 0 -7-7zm-36 2h31.11a7 7 0 0 0 -2.11 5v35h-34v-35a5 5 0 0 1 5-5zm28 46h-32a1 1 0 0 1 -1-1v-3h34v3a1 1 0 0 1 -1 1zm13-25a1 1 0 0 1 -1 1h-9v-17a5 5 0 0 1 10 0zm-41.83-.45a1 1 0 0 1 0-1.1l6-9a1 1 0 0 1 1.66 1.1l-5.63 8.45 5.63 8.45a1 1 0 0 1 -1.66 1.1zm18 7.9 5.63-8.45-5.63-8.45a1 1 0 1 1 1.66-1.1l6 9a1 1 0 0 1 0 1.1l-6 9a1 1 0 1 1 -1.66-1.1zm-8.17.33 4-18a1 1 0 1 1 2 .44l-4 18a1 1 0 0 1 -2-.44z" fill="#151a6a"/></g></svg>