<svg height="512" viewBox="0 0 64 64" width="512" xmlns="http://www.w3.org/2000/svg"><g id="Line"><path d="m37 37.5v10h-10v-10zm26-12v32a3 3 0 0 1 -3 3h-38a3 3 0 0 1 -3-3v-32a3 3 0 0 1 3-3h38a3 3 0 0 1 3 3zm-16 4a1 1 0 0 0 1 1h2a1 1 0 0 0 0-2h-2a1 1 0 0 0 -1 1zm-22 0a1 1 0 0 0 1 1h6a1 1 0 0 0 0-2h-6a1 1 0 0 0 -1 1zm14 8a2 2 0 0 0 -2-2h-10a2 2 0 0 0 -2 2v10a2 2 0 0 0 2 2h10a2 2 0 0 0 2-2zm12 16a1 1 0 0 0 -1-1h-2a1 1 0 0 0 0 2h2a1 1 0 0 0 1-1zm6 0a1 1 0 0 0 -1-1h-2a1 1 0 0 0 0 2h2a1 1 0 0 0 1-1zm0-7a1 1 0 0 0 -1-1h-12a1 1 0 0 0 0 2h12a1 1 0 0 0 1-1zm0-4a1 1 0 0 0 -1-1h-9a1 1 0 0 0 0 2h9a1 1 0 0 0 1-1zm0-4a1 1 0 0 0 -1-1h-12a1 1 0 0 0 0 2h12a1 1 0 0 0 1-1zm0-9a1 1 0 0 0 -1-1h-2a1 1 0 0 0 0 2h2a1 1 0 0 0 1-1z" fill="#c4a2fc"/><path d="m48 3.5h-44a3 3 0 0 0 -3 3v32a3 3 0 0 0 3 3h44a3 3 0 0 0 3-3v-32a3 3 0 0 0 -3-3zm1 35a1 1 0 0 1 -1 1h-44a1 1 0 0 1 -1-1v-32a1 1 0 0 1 1-1h44a1 1 0 0 1 1 1zm-31.58-16.43h-.91c0-3.73 0-8.07 0-8.61-.16-1.9-2.12-2.72-3.46-1.07-.86 1-5.4 9.27-5.92 10.2a1 1 0 0 0 .87 1.48h6.5v3.42a1 1 0 0 0 1 1 1 1 0 0 0 1-1c0-.4 0-1.74 0-3.44h.92a1 1 0 0 0 0-2zm-2.91 0h-4.81c1.82-3.27 4.2-7.46 4.82-8.32.02.81.01 4.48-.01 8.32zm29.49 0h-.91c0-3.73 0-8.07 0-8.61-.16-1.89-2.12-2.73-3.46-1.07-.86 1-5.4 9.27-5.92 10.2a1 1 0 0 0 .88 1.48h6.5v3.42a1 1 0 0 0 1 1 1 1 0 0 0 1-1c0-.4 0-1.74 0-3.44h.91a1 1 0 0 0 0-2zm-2.91 0h-4.81c1.82-3.27 4.2-7.46 4.82-8.32.02.81.01 4.48-.01 8.32zm-15.09 6.43a5.18 5.18 0 0 0 5.17-5.17v-6.66a5.17 5.17 0 0 0 -10.34 0v6.66a5.18 5.18 0 0 0 5.17 5.17zm-3.17-11.83a3.17 3.17 0 0 1 6.34 0v6.66a3.17 3.17 0 0 1 -6.34 0zm10.17 15.83a1 1 0 0 1 -1 1h-12a1 1 0 0 1 0-2h12a1 1 0 0 1 1 1zm-24 12v3a1 1 0 0 0 1 1h3.59l-1.3-1.29a1 1 0 0 1 1.42-1.42l3 3a1 1 0 0 1 0 1.42l-3 3a1 1 0 0 1 -1.42-1.42l1.3-1.29h-3.59a3 3 0 0 1 -3-3v-3a1 1 0 0 1 2 0z" fill="#151a6a"/></g></svg>