<svg height="512" viewBox="0 0 64 64" width="512" xmlns="http://www.w3.org/2000/svg"><g id="Line"><path d="m25 36v-1a3 3 0 0 1 3-3h14a3 3 0 0 1 3 3v1zm20 2h-20v16h20zm-20 18v1a3 3 0 0 0 3 3h14a3 3 0 0 0 3-3v-1zm38-2v-30h-32v6h11a5 5 0 0 1 5 5v19zm-16 2v1a4.92 4.92 0 0 1 -1 3h14a3 3 0 0 0 3-3v-1zm16-34v-1a3 3 0 0 0 -3-3h-26a3 3 0 0 0 -3 3v1z" fill="#c4a2fc"/><path d="m40 10h-28a1 1 0 0 0 -1 1v6a1 1 0 0 0 1 1h28a1 1 0 0 0 1-1v-6a1 1 0 0 0 -1-1zm-1 6h-26v-4h26zm1 4h-10a1 1 0 0 0 -1 1v8a1 1 0 0 0 1 1h10a1 1 0 0 0 1-1v-8a1 1 0 0 0 -1-1zm-1 8h-8v-6h8zm-12-7a1 1 0 0 1 -1 1h-14a1 1 0 0 1 0-2h14a1 1 0 0 1 1 1zm0 4a1 1 0 0 1 -1 1h-14a1 1 0 0 1 0-2h14a1 1 0 0 1 1 1zm0 4a1 1 0 0 1 -1 1h-14a1 1 0 0 1 0-2h14a1 1 0 0 1 1 1zm21-25h-44a3 3 0 0 0 -3 3v26a3 3 0 0 0 3 3h15v7h-3a1 1 0 0 0 0 2h20a1 1 0 0 0 0-2h-3v-7h15a3 3 0 0 0 3-3v-26a3 3 0 0 0 -3-3zm-17 39h-10v-7h10zm18-10a1 1 0 0 1 -1 1h-44a1 1 0 0 1 -1-1v-26a1 1 0 0 1 1-1h44a1 1 0 0 1 1 1z" fill="#151a6a"/></g></svg>