<svg height="512" viewBox="0 0 64 64" width="512" xmlns="http://www.w3.org/2000/svg"><g id="Line"><path d="m63 35.33a17.49 17.49 0 0 1 -33.06 8l3.4-3.4a13 13 0 1 0 -.84-4.57 12.34 12.34 0 0 0 .23 2.36l-3.65 3.64a17.34 17.34 0 0 1 -1.08-6 17.5 17.5 0 0 1 35 0zm-42.29 24.67.17.17a3 3 0 0 0 4.24 0l9-9a19.72 19.72 0 0 1 -4.42-4.42l-9 9a3 3 0 0 0 .01 4.25zm21-20.42a1 1 0 0 1 -1.42 0l-3.29-3.34-2.08 2.08a11 11 0 1 0 -.42-3v.56l1.76-1.77a1 1 0 0 1 1.42 0l3.32 3.3 3.59-3.58h-.59a1 1 0 0 1 0-2h3a1 1 0 0 1 .38.07 1 1 0 0 1 .62.93v3a1 1 0 0 1 -2 0v-.59z" fill="#c4a2fc"/><path d="m48 3h-44a3 3 0 0 0 -3 3v38a3 3 0 0 0 3 3h44a3 3 0 0 0 3-3v-38a3 3 0 0 0 -3-3zm1 41a1 1 0 0 1 -1 1h-44a1 1 0 0 1 -1-1v-38a1 1 0 0 1 1-1h44a1 1 0 0 1 1 1zm-11-33h-24a7 7 0 0 0 0 14h24a7 7 0 0 0 0-14zm2.64 11.23-2.21-2.23a4.05 4.05 0 1 0 -1.43 1.43l1.53 1.57a4.75 4.75 0 0 1 -.53 0h-24a5 5 0 0 1 0-10h24a5 5 0 0 1 2.64 9.23zm-5.64-2.23a2 2 0 1 1 2-2 2 2 0 0 1 -2 2zm7 11a1 1 0 0 1 -1 1h-30a1 1 0 0 1 0-2h30a1 1 0 0 1 1 1zm-17 6a1 1 0 0 1 -1 1h-13a1 1 0 0 1 0-2h13a1 1 0 0 1 1 1z" fill="#151a6a"/></g></svg>