<svg height="512" viewBox="0 0 64 64" width="512" xmlns="http://www.w3.org/2000/svg"><g id="Line"><path d="m63 50v-19a3 3 0 0 0 -3-3h-37a3 3 0 0 0 -3 3v19zm-21-16h15a1 1 0 0 1 0 2h-15a1 1 0 0 1 0-2zm0 5h15a1 1 0 0 1 0 2h-15a1 1 0 0 1 0-2zm0 5h15a1 1 0 0 1 0 2h-15a1 1 0 0 1 0-2zm-10-11a7 7 0 1 1 -7 7 7 7 0 0 1 7-7zm-5 7a5 5 0 1 1 5 5 5 5 0 0 1 -5-5zm36 12v5a3 3 0 0 1 -3 3h-10v-8zm-27 0h12v8h-12zm-2 8h-11a3 3 0 0 1 -3-3v-5h14z" fill="#c4a2fc"/><path d="m44 18a7 7 0 1 0 -7-7 6.82 6.82 0 0 0 .2 1.64l-11.55 4.62a13 13 0 1 0 0 11.48l11.55 4.62a7.36 7.36 0 0 0 -.2 1.64 7 7 0 1 0 1-3.5l-11.59-4.61a13.12 13.12 0 0 0 0-7.78l11.59-4.61a7 7 0 0 0 6 3.5zm0 12a5 5 0 1 1 -5 5 5 5 0 0 1 5-5zm-19-8h-5.52a22.16 22.16 0 0 0 -2.13-9.48 11 11 0 0 1 7.65 9.48zm-11 12c-1.35 0-3.29-3.87-3.48-10h7c-.23 6.13-2.17 10-3.52 10zm-3.48-12c.19-6.13 2.13-10 3.48-10s3.29 3.87 3.48 10zm.13-9.48a22.16 22.16 0 0 0 -2.13 9.48h-5.47a11 11 0 0 1 7.6-9.48zm-7.6 11.48h5.47a22.16 22.16 0 0 0 2.13 9.48 11 11 0 0 1 -7.6-9.48zm14.3 9.48a22.16 22.16 0 0 0 2.13-9.48h5.52a11 11 0 0 1 -7.65 9.48zm26.65-27.48a5 5 0 1 1 -5 5 5 5 0 0 1 5-5z" fill="#151a6a"/></g></svg>