<svg height="512" viewBox="0 0 64 64" width="512" xmlns="http://www.w3.org/2000/svg"><g id="Line"><path d="m60.5 55v-33a3 3 0 0 0 -3-3h-20a3 3 0 0 0 -3 3v33zm-19-17a1 1 0 0 1 1 1 5 5 0 1 0 5-5h-.59l1.3 1.29a1 1 0 0 1 -1.42 1.42l-3-3a1 1 0 0 1 0-1.42l3-3a1 1 0 0 1 1.42 1.42l-1.3 1.29h.59a7 7 0 1 1 -7 7 1 1 0 0 1 1-1zm19 19v3a3 3 0 0 1 -3 3h-20a3 3 0 0 1 -3-3v-3z" fill="#c4a2fc"/><path d="m50.5 1h-44a3 3 0 0 0 -3 3v32a3 3 0 0 0 3 3h15.82l-1.67 10h-1.15a1 1 0 0 0 0 2h18.5a1 1 0 0 0 0-2h-1.65l-1.67-10h15.82a3 3 0 0 0 3-3v-32a3 3 0 0 0 -3-3zm-16.18 48h-11.64l1.67-10h8.3zm17.18-13a1 1 0 0 1 -1 1h-44a1 1 0 0 1 -1-1v-32a1 1 0 0 1 1-1h44a1 1 0 0 1 1 1zm-13-16a1 1 0 0 1 -2 0 8 8 0 1 0 -8 8h.59l-1.3-1.29a1 1 0 0 1 1.42-1.42l3 3a1 1 0 0 1 0 1.42l-3 3a1 1 0 0 1 -1.42-1.42l1.3-1.29h-.59a10 10 0 1 1 10-10z" fill="#151a6a"/></g></svg>