<svg height="512" viewBox="0 0 64 64" width="512" xmlns="http://www.w3.org/2000/svg"><g id="Line"><path d="m20.71 57.71 9-9a19.72 19.72 0 0 0 4.42 4.42l-9 9a3 3 0 0 1 -4.24 0l-.18-.13a3 3 0 0 1 0-4.29zm42.29-20.38a17.5 17.5 0 1 1 -17.5-17.5 17.52 17.52 0 0 1 17.5 17.5zm-4.5 0a13 13 0 1 0 -13 13 13 13 0 0 0 13-13zm-2 0a11 11 0 1 1 -11-11 11 11 0 0 1 11 11zm-4.79-3.21a1 1 0 0 0 -1.42 0l-6.29 6.3-4.29-4.3a1 1 0 0 0 -1.42 1.42l5 5a1 1 0 0 0 1.42 0l7-7a1 1 0 0 0 0-1.42z" fill="#c4a2fc"/><path d="m48 1h-44a3 3 0 0 0 -3 3v35a3 3 0 0 0 3 3h44a3 3 0 0 0 3-3v-35a3 3 0 0 0 -3-3zm-44 2h44a1 1 0 0 1 1 1v3h-46v-3a1 1 0 0 1 1-1zm44 37h-44a1 1 0 0 1 -1-1v-30h46v30a1 1 0 0 1 -1 1zm-6-27h-32a1 1 0 0 0 -1 1v12a1 1 0 0 0 1 1h32a1 1 0 0 0 1-1v-12a1 1 0 0 0 -1-1zm-1 12h-30v-10h30zm-23 4h-8a1 1 0 0 0 -1 1v5a1 1 0 0 0 1 1h8a1 1 0 0 0 1-1v-5a1 1 0 0 0 -1-1zm-1 5h-6v-3h6zm13-5h-8a1 1 0 0 0 -1 1v5a1 1 0 0 0 1 1h8a1 1 0 0 0 1-1v-5a1 1 0 0 0 -1-1zm-1 5h-6v-3h6zm13-5h-8a1 1 0 0 0 -1 1v5a1 1 0 0 0 1 1h8a1 1 0 0 0 1-1v-5a1 1 0 0 0 -1-1zm-1 5h-6v-3h6z" fill="#151a6a"/></g></svg>