<svg height="512" viewBox="0 0 64 64" width="512" xmlns="http://www.w3.org/2000/svg"><g id="Line"><path d="m32 52v8a3 3 0 0 1 -3 3h-7a3 3 0 0 1 -3-3v-8a3 3 0 0 1 3-3h7a3 3 0 0 1 3 3zm12.5-3h-7a3 3 0 0 0 -3 3v8a3 3 0 0 0 3 3h7a3 3 0 0 0 3-3v-8a3 3 0 0 0 -3-3zm15.5 0h-7a3 3 0 0 0 -3 3v8a3 3 0 0 0 3 3h7a3 3 0 0 0 3-3v-8a3 3 0 0 0 -3-3zm3-27v20a3 3 0 0 1 -3 3h-4.59l-15.29-15.29a3 3 0 0 0 -4.24 0l-15.05 15a3 3 0 0 1 -1.83-2.71v-20a3 3 0 0 1 3-3h38a3 3 0 0 1 3 3zm-6 7a4 4 0 1 0 -4 4 4 4 0 0 0 4-4zm-4-2a2 2 0 1 0 2 2 2 2 0 0 0 -2-2zm-15.71 4.12-13.88 13.88h29.18l-13.88-13.88a1 1 0 0 0 -1.42 0z" fill="#c4a2fc"/><g fill="#151a6a"><path d="m48 1h-32a3 3 0 0 0 -3 3v35h-9a3 3 0 0 0 -3 3v2a7 7 0 0 0 7 7h36a7 7 0 0 0 7-7v-40a3 3 0 0 0 -3-3zm-40 48a5 5 0 0 1 -5-5v-2a1 1 0 0 1 1-1h32a1 1 0 0 1 1 1v2a7 7 0 0 0 2.11 5zm41-5a5 5 0 0 1 -10 0v-2a3 3 0 0 0 -3-3h-21v-35a1 1 0 0 1 1-1h32a1 1 0 0 1 1 1zm-3-8a1 1 0 0 1 -1 1h-26a1 1 0 0 1 0-2h26a1 1 0 0 1 1 1zm-1-29h-26a1 1 0 0 0 -1 1c0 .68 0 12.14 0 12a1 1 0 0 0 1 1h26a1 1 0 0 0 1-1c0-.68 0-12.14 0-12a1 1 0 0 0 -1-1zm-25 2.56 9.61 4.44-9.61 4.44zm3.55-.56h16.9l-8.45 3.9zm8.45 6.1 8.45 3.9h-16.9zm2.39-1.1 9.61-4.44v8.88zm-15.39 19h6a1 1 0 0 0 1-1v-8c-.17-.77-.62-1-1-1h-6a1 1 0 0 0 -1 1v8a1.05 1.05 0 0 0 1 1zm2-2 3-4v4zm2-6-3 4v-4z"/><path d="m35 23h-6a1 1 0 0 0 -1 1v8a1.05 1.05 0 0 0 1 1h6a1 1 0 0 0 1-1v-8c-.17-.77-.62-1-1-1zm-5 2h3l-3 4zm4 6h-3l3-4z"/><path d="m45 23h-6a1 1 0 0 0 -1 1v8a1.05 1.05 0 0 0 1 1h6a1 1 0 0 0 1-1v-8c-.17-.77-.62-1-1-1zm-5 2h3l-3 4zm4 6h-3l3-4z"/></g></g></svg>