<svg height="512" viewBox="0 0 64 64" width="512" xmlns="http://www.w3.org/2000/svg"><g id="Line"><path d="m35 35h-4v-3a13 13 0 0 1 26 0v3h-4v-3a9 9 0 0 0 -18 0zm25 5v20a3 3 0 0 1 -3 3h-26a3 3 0 0 1 -3-3v-20a3 3 0 0 1 3-3h26a3 3 0 0 1 3 3zm-8.29 5.29a1 1 0 0 0 -1.42 0l-6.29 6.3-4.29-4.3a1 1 0 0 0 -1.42 1.42l5 5a1 1 0 0 0 1.42 0l7-7a1 1 0 0 0 0-1.42z" fill="#c4a2fc"/><path d="m51 1h-44a3 3 0 0 0 -3 3v32a3 3 0 0 0 3 3h44a3 3 0 0 0 3-3v-32a3 3 0 0 0 -3-3zm1 35a1 1 0 0 1 -1 1h-44a1 1 0 0 1 -1-1v-32a1 1 0 0 1 1-1h44a1 1 0 0 1 1 1zm-9-28h-18a5 5 0 0 0 0 10h18a5 5 0 0 0 0-10zm0 8h-18a3 3 0 0 1 0-6h18a3 3 0 0 1 0 6zm-9-3a1 1 0 0 1 -1 1h-8a1 1 0 0 1 0-2h8a1 1 0 0 1 1 1zm10 0a1 1 0 0 1 -1 1h-6a1 1 0 0 1 0-2h6a1 1 0 0 1 1 1zm-30-4a4 4 0 1 0 4 4 4 4 0 0 0 -4-4zm0 6a2 2 0 1 1 2-2 2 2 0 0 1 -2 2zm29 7h-18a5 5 0 0 0 0 10h18a5 5 0 0 0 0-10zm0 8h-18a3 3 0 0 1 0-6h18a3 3 0 0 1 0 6zm-29-7a4 4 0 1 0 4 4 4 4 0 0 0 -4-4zm0 6a2 2 0 1 1 2-2 2 2 0 0 1 -2 2zm13.5-2a1 1 0 0 1 -1 1h-1a1 1 0 0 1 0-2h1a1 1 0 0 1 1 1zm4 0a1 1 0 0 1 -1 1h-1a1 1 0 0 1 0-2h1a1 1 0 0 1 1 1zm4 0a1 1 0 0 1 -1 1h-1a1 1 0 0 1 0-2h1a1 1 0 0 1 1 1zm4 0a1 1 0 0 1 -1 1h-1a1 1 0 0 1 0-2h1a1 1 0 0 1 1 1zm4 0a1 1 0 0 1 -1 1h-1a1 1 0 0 1 0-2h1a1 1 0 0 1 1 1z" fill="#151a6a"/></g></svg>